<svg width="33" height="19" viewBox="0 0 33 19" fill="none" xmlns="http://www.w3.org/2000/svg">
<g clip-path="url(#clip0)">
<path fill-rule="evenodd" clip-rule="evenodd" d="M22.9835 18.9585L23.4727 18.9455L23.9554 18.9103L24.4287 18.8498L24.8988 18.7666L25.356 18.6612L25.8068 18.5331L26.2481 18.3829L26.6798 18.2134L27.1019 18.0214L27.5114 17.8137L27.9077 17.5835L28.2948 17.3373L28.6654 17.0718L29.0237 16.7905L29.3689 16.4931L29.6984 16.1766L30.0148 15.8473L30.3123 15.5019L30.5938 15.1437L30.8591 14.7728L31.1054 14.386L31.3355 13.9894L31.5434 13.5799L31.7352 13.1579L31.9047 12.7263L32.055 12.285L32.1828 11.8342L32.2883 11.377L32.3716 10.9068L32.4323 10.4336L32.4675 9.95069L32.4803 9.46165L32.4675 8.97544L32.4323 8.49583L32.3716 8.0226L32.2883 7.55905L32.1828 7.10175L32.055 6.65413L31.9047 6.21288L31.7352 5.7845L31.5434 5.36555L31.3355 4.95605L31.1054 4.56283L30.8591 4.17599L30.5938 3.80507L30.3123 3.45021L30.0149 3.10479L29.6984 2.77553L29.3689 2.46209L29.0237 2.1647L28.6654 1.88336L28.2946 1.61783L27.9076 1.37178L27.5113 1.14472L27.1019 0.936783L26.6798 0.745012L26.2481 0.575429L25.8068 0.425081L25.356 0.297273L24.8988 0.19177L24.4287 0.108689L23.9554 0.047913L23.4727 0.0127453L22.9835 0L22.4973 0.0127453L22.0146 0.047913L21.5414 0.108689L21.0745 0.19177L20.6172 0.297273L20.1664 0.425081L19.7282 0.575429L19.2967 0.745012L18.8777 0.936783L18.4715 1.14472L18.075 1.37178L17.6915 1.61795L17.3204 1.88348L16.9624 2.16482L16.6201 2.46209L16.2909 2.77542L15.9774 3.10467L15.6801 3.45021L15.3986 3.80507L15.1366 4.17599L14.8902 4.56283L14.6634 4.95617L14.4521 5.36555L14.2636 5.7845L14.0941 6.21288L13.947 6.65425L13.8191 7.10175L13.7137 7.55905L13.6305 8.02272L13.5698 8.49595L13.5346 8.97555L13.5216 9.46165L13.5346 9.95069L13.5698 10.4336L13.6305 10.9068L13.7137 11.377L13.8191 11.8342L13.947 12.285L14.0941 12.7263L14.2636 13.1579L14.4523 13.58L14.6634 13.9894L14.8902 14.386L15.1365 14.7728L15.3986 15.1437L15.6801 15.5019L15.9774 15.8473L16.2909 16.1766L16.6201 16.4932L16.9624 16.7905L17.3204 17.0718L17.6915 17.3373L18.075 17.5835L18.4715 17.8137L18.8777 18.0214L19.2967 18.2134L19.7282 18.3829L20.1663 18.5331L20.6172 18.6612L21.0745 18.7666L21.5413 18.8498L22.0145 18.9103L22.4974 18.9456L22.9835 18.9585Z" fill="#FCB330"/>
<path fill-rule="evenodd" clip-rule="evenodd" d="M10.3017 18.9585L10.788 18.9455L11.2706 18.9103L11.7439 18.8498L12.2107 18.7666L12.668 18.6612L13.1188 18.5331L13.5569 18.3829L13.9886 18.2134L14.4075 18.0214L14.8135 17.8137L15.21 17.5835L15.5937 17.3373L15.9646 17.0718L16.3229 16.7905L16.6649 16.4931L16.9943 16.1766L17.3078 15.8473L17.6051 15.5019L17.8864 15.1437L18.1485 14.7728L18.3949 14.386L18.6219 13.9894L18.8329 13.5799L19.0214 13.1579L19.1911 12.7263L19.3381 12.285L19.4661 11.8342L19.5715 11.377L19.6547 10.9068L19.7155 10.4336L19.7505 9.95069L19.7634 9.46165L19.7504 8.97544L19.7155 8.49583L19.6547 8.0226L19.5715 7.55905L19.4661 7.10175L19.3381 6.65413L19.1911 6.21288L19.0214 5.7845L18.8329 5.36555L18.6219 4.95605L18.3949 4.56283L18.1485 4.17599L17.8865 3.80507L17.6051 3.45021L17.3077 3.10479L16.9943 2.77553L16.6649 2.46209L16.3229 2.1647L15.9646 1.88336L15.5937 1.61783L15.2101 1.37178L14.8136 1.14472L14.4075 0.936783L13.9886 0.745012L13.5569 0.575429L13.1187 0.425081L12.668 0.297273L12.2107 0.19177L11.744 0.108689L11.2705 0.047913L10.7878 0.0127453L10.3017 0L9.81247 0.0127453L9.32956 0.047913L8.85633 0.108689L8.3864 0.19177L7.92911 0.297273L7.4783 0.425081L7.03693 0.575429L6.60524 0.745012L6.18323 0.936783L5.77396 1.14472L5.37744 1.37178L4.9906 1.61795L4.61957 1.88348L4.26152 2.16482L3.91609 2.46209L3.58684 2.77542L3.27021 3.10467L2.97282 3.45021L2.6916 3.80507L2.42607 4.17599L2.17989 4.56283L1.94965 4.95617L1.74171 5.36555L1.54994 5.7845L1.38036 6.21288L1.23025 6.65425L1.1022 7.10175L0.99682 7.55905L0.913621 8.02272L0.852845 8.49595L0.817677 8.97555L0.804932 9.46165L0.817677 9.95069L0.852845 10.4336L0.913621 10.9068L0.99682 11.377L1.1022 11.8342L1.23025 12.285L1.38036 12.7263L1.54994 13.1579L1.74171 13.58L1.94965 13.9894L2.17989 14.386L2.42607 14.7728L2.6916 15.1437L2.97294 15.5019L3.27033 15.8473L3.58684 16.1766L3.91609 16.4932L4.26152 16.7905L4.61957 17.0718L4.9906 17.3373L5.37744 17.5835L5.77396 17.8137L6.18323 18.0214L6.60524 18.2134L7.03705 18.3829L7.47818 18.5331L7.92899 18.6612L8.3864 18.7666L8.85645 18.8498L9.32968 18.9103L9.81247 18.9456L10.3017 18.9585Z" fill="#ED1B2D"/>
<path fill-rule="evenodd" clip-rule="evenodd" d="M15.533 3.63562H20.5693V3.12085H15.9679L15.533 3.63562ZM14.7783 4.78046H20.5693V4.26557H15.0822L14.7783 4.78046ZM14.2155 5.92188H20.5693V5.40699H14.4395L14.2155 5.92188ZM13.8287 7.0666H20.5693V6.55194H13.9886L13.8287 7.0666ZM14.0524 12.5984H20.5852V12.0837H13.8925L14.0523 12.5984H14.0524ZM14.5353 13.7433H20.5852V13.2284H14.2957L14.5353 13.7433ZM15.2132 14.8847H20.5851V14.3699H14.8902L15.2132 14.8847ZM16.147 16.0294H20.5852V15.5116H15.6961L16.1469 16.0294H16.147ZM13.6016 8.20825H20.5693V7.69324H13.7009L13.6016 8.20813V8.20825ZM17.8481 11.4569H20.5054V10.9421H17.9439L17.8479 11.457L17.8481 11.4569ZM18.0592 10.3155H20.5054V9.79741H18.155L18.0592 10.3155ZM13.4259 9.79741H14.1165V10.3155H13.4579L13.4259 9.79741Z" fill="#FCB330"/>
<path fill-rule="evenodd" clip-rule="evenodd" d="M12.1371 9.17395L12.0924 9.17077L12.0476 9.16428L12.0061 9.15802L11.9645 9.15153L11.9261 9.14516L11.8846 9.13867L11.843 9.13241L11.7983 9.12604L11.7534 9.11955L11.7023 9.11636L11.6447 9.11318L11.584 9.11011H11.5167L11.4433 9.11318L11.3601 9.11955L11.2676 9.12604L11.2035 9.13572L11.1427 9.14516L11.0884 9.16428L11.0403 9.18363L10.9955 9.20594L10.9541 9.23154L10.9221 9.26341L10.8933 9.29232L10.8742 9.32749L10.8582 9.36265L10.8517 9.40101V9.43936L10.8614 9.4809L10.8742 9.52256L10.8997 9.56398L10.9316 9.60564L10.9955 9.66642L11.0723 9.71433L11.1619 9.75587L11.2579 9.79104L11.3601 9.82302L11.4656 9.85831L11.5712 9.89666L11.6735 9.9382L11.7695 9.99249L11.8589 10.0598L11.9389 10.1396L12.0061 10.2388L12.0572 10.3603L12.0892 10.5042L12.102 10.6768L12.0892 10.8784L12.0667 11.0285L12.0284 11.1597L11.9773 11.2812L11.9132 11.3866L11.8398 11.4794L11.7566 11.5593L11.667 11.6298L11.568 11.6906L11.4656 11.7385L11.3601 11.7801L11.2515 11.812L11.1394 11.8375L11.0308 11.8567L10.9253 11.8662L10.8197 11.8727L10.7206 11.876H10.5832L10.4552 11.8727H10.3433L10.2378 11.8695L10.1417 11.8663L10.0556 11.86L9.97875 11.8535L9.90523 11.8439L9.83796 11.8375L9.77742 11.8247L9.71664 11.8152L9.66236 11.7993L9.60784 11.7863L9.55662 11.7673L9.50552 11.748L9.45123 11.7288L9.59509 11.0221L9.62388 11.0285L9.65905 11.0382L9.70378 11.0508L9.75806 11.0638L9.81565 11.0767L9.87974 11.0893L9.94995 11.1052L10.0268 11.1181L10.1067 11.1308L10.1899 11.1437L10.2763 11.1533L10.3658 11.1629L10.4584 11.166L10.5511 11.1692H10.644L10.7365 11.166L10.8294 11.1469L10.9028 11.1213L10.9604 11.0861L11.0052 11.0414L11.0371 10.9965L11.0628 10.9454L11.0787 10.8942L11.0916 10.8463L11.0979 10.7535L11.0693 10.6737L11.0148 10.6097L10.9348 10.5554L10.8389 10.5074L10.7271 10.4595L10.6023 10.4146L10.4777 10.3635L10.3497 10.3059L10.2281 10.2387L10.1162 10.1556L10.0139 10.0564L9.93402 9.9349L9.87643 9.79104L9.84764 9.61839L9.85094 9.41387L9.86687 9.28902L9.88929 9.17077L9.92116 9.06196L9.95963 8.95976L10.0107 8.8637L10.0683 8.78062L10.1356 8.70072L10.2155 8.63051L10.3082 8.56961L10.4104 8.51851L10.5256 8.47048L10.6534 8.43543L10.7974 8.40664L10.9541 8.38421L11.1267 8.37135L11.3155 8.36816H11.4336L11.5424 8.37135L11.6415 8.37465L11.7311 8.37784L11.811 8.3841L11.8846 8.39059L11.9484 8.39696L12.0061 8.40345L12.0604 8.40982L12.1052 8.41926L12.1468 8.42575L12.1851 8.43224L12.2172 8.4385L12.2459 8.44169L12.2747 8.44806L12.3003 8.45136L12.1371 9.17395Z" fill="white"/>
<path fill-rule="evenodd" clip-rule="evenodd" d="M12.1371 9.17395L12.0924 9.17077L12.0476 9.16428L12.0061 9.15802L11.9645 9.15153L11.9261 9.14516L11.8846 9.13867L11.843 9.13241L11.7983 9.12604L11.7534 9.11955L11.7023 9.11636L11.6447 9.11318L11.584 9.11011H11.5167L11.4433 9.11318L11.3601 9.11955L11.2676 9.12604L11.2035 9.13572L11.1427 9.14516L11.0884 9.16428L11.0403 9.18363L10.9955 9.20594L10.9541 9.23154L10.9221 9.26341L10.8933 9.29232L10.8742 9.32749L10.8582 9.36265L10.8517 9.40101V9.43936L10.8614 9.4809L10.8742 9.52256L10.8997 9.56398L10.9316 9.60564L10.9955 9.66642L11.0723 9.71433L11.1619 9.75587L11.2579 9.79104L11.3601 9.82302L11.4656 9.85831L11.5712 9.89666L11.6735 9.9382L11.7695 9.99249L11.8589 10.0598L11.9389 10.1396L12.0061 10.2388L12.0572 10.3603L12.0892 10.5042L12.102 10.6768L12.0892 10.8784L12.0667 11.0285L12.0284 11.1597L11.9773 11.2812L11.9132 11.3866L11.8398 11.4794L11.7566 11.5593L11.667 11.6298L11.568 11.6906L11.4656 11.7385L11.3601 11.7801L11.2515 11.812L11.1394 11.8375L11.0308 11.8567L10.9253 11.8662L10.8197 11.8727L10.7206 11.876H10.5832L10.4552 11.8727H10.3433L10.2378 11.8695L10.1417 11.8663L10.0556 11.86L9.97875 11.8535L9.90523 11.8439L9.83796 11.8375L9.77742 11.8247L9.71664 11.8152L9.66236 11.7993L9.60784 11.7863L9.55662 11.7673L9.50552 11.748L9.45123 11.7288L9.59509 11.0221L9.62388 11.0285L9.65905 11.0382L9.70378 11.0508L9.75806 11.0638L9.81565 11.0767L9.87974 11.0893L9.94995 11.1052L10.0268 11.1181L10.1067 11.1308L10.1899 11.1437L10.2763 11.1533L10.3658 11.1629L10.4584 11.166L10.5511 11.1692H10.644L10.7365 11.166L10.8294 11.1469L10.9028 11.1213L10.9604 11.0861L11.0052 11.0414L11.0371 10.9965L11.0628 10.9454L11.0787 10.8942L11.0916 10.8463L11.0979 10.7535L11.0693 10.6737L11.0148 10.6097L10.9348 10.5554L10.8389 10.5074L10.7271 10.4595L10.6023 10.4146L10.4777 10.3635L10.3497 10.3059L10.2281 10.2387L10.1162 10.1556L10.0139 10.0564L9.93402 9.9349L9.87643 9.79104L9.84764 9.61839L9.85094 9.41387L9.86687 9.28902L9.88929 9.17077L9.92116 9.06196L9.95963 8.95976L10.0107 8.8637L10.0683 8.78062L10.1356 8.70072L10.2155 8.63051L10.3082 8.56961L10.4104 8.51851L10.5256 8.47048L10.6534 8.43543L10.7974 8.40664L10.9541 8.38421L11.1267 8.37135L11.3155 8.36816H11.4336L11.5424 8.37135L11.6415 8.37465L11.7311 8.37784L11.811 8.3841L11.8846 8.39059L11.9484 8.39696L12.0061 8.40345L12.0604 8.40982L12.1052 8.41926L12.1468 8.42575L12.1851 8.43224L12.2172 8.4385L12.2459 8.44169L12.2747 8.44806L12.3003 8.45136L12.1371 9.17395V9.17395Z" stroke="white" stroke-width="0.904" stroke-miterlimit="2"/>
<path fill-rule="evenodd" clip-rule="evenodd" d="M12.895 7.66138H13.7808L13.6498 8.4353H14.1837L14.0686 9.15789L13.5057 9.14184L13.1989 10.9262L13.1957 10.9901L13.2115 11.0444L13.2436 11.086L13.2851 11.1211L13.3427 11.1436L13.4066 11.1628L13.477 11.1755L13.5537 11.1819L13.6242 11.1787L13.6879 11.1724L13.7455 11.1629L13.7967 11.1499L13.8382 11.1371L13.867 11.1276L13.8862 11.1211L13.8926 11.118L13.7808 11.7127L13.7583 11.7287L13.7359 11.7415L13.7137 11.7543L13.6912 11.7671L13.6688 11.7767L13.6433 11.7861L13.6145 11.7958L13.5857 11.8055L13.5537 11.8149L13.5217 11.8214L13.4834 11.8279L13.445 11.8342L13.4034 11.8405L13.3555 11.847L13.3044 11.8534L13.25 11.8599H13.0068L12.879 11.8502L12.767 11.8372L12.6648 11.8182L12.5785 11.7958L12.5048 11.7671L12.4442 11.735L12.3898 11.6967L12.3482 11.6551L12.3162 11.6103L12.2938 11.5561L12.278 11.5016L12.2683 11.441L12.2651 11.3737V11.3034L12.2747 11.2298L12.2841 11.1499L12.895 7.66138Z" fill="white"/>
<path fill-rule="evenodd" clip-rule="evenodd" d="M12.895 7.66138H13.7808L13.6498 8.4353H14.1837L14.0686 9.15789L13.5057 9.14184L13.1989 10.9262L13.1957 10.9901L13.2115 11.0444L13.2436 11.086L13.2851 11.1211L13.3427 11.1436L13.4066 11.1628L13.477 11.1755L13.5537 11.1819L13.6242 11.1787L13.6879 11.1724L13.7455 11.1629L13.7967 11.1499L13.8382 11.1371L13.867 11.1276L13.8862 11.1211L13.8926 11.118L13.7808 11.7127L13.7583 11.7287L13.7359 11.7415L13.7137 11.7543L13.6912 11.7671L13.6688 11.7767L13.6433 11.7861L13.6145 11.7958L13.5857 11.8055L13.5537 11.8149L13.5217 11.8214L13.4834 11.8279L13.445 11.8342L13.4034 11.8405L13.3555 11.847L13.3044 11.8534L13.25 11.8599H13.0068L12.879 11.8502L12.767 11.8372L12.6648 11.8182L12.5785 11.7958L12.5048 11.7671L12.4442 11.735L12.3898 11.6967L12.3482 11.6551L12.3162 11.6103L12.2938 11.5561L12.278 11.5016L12.2683 11.441L12.2651 11.3737V11.3034L12.2747 11.2298L12.2841 11.1499L12.895 7.66138V7.66138Z" stroke="white" stroke-width="0.904" stroke-miterlimit="2"/>
<path fill-rule="evenodd" clip-rule="evenodd" d="M14.8902 10.3635L14.8808 10.4178L14.8775 10.4754L14.8839 10.5362L14.8967 10.5969L14.9191 10.6576L14.9447 10.7152L14.9798 10.776L15.0182 10.8303L15.0628 10.8845L15.111 10.9326L15.1621 10.9806L15.2197 11.0188L15.2773 11.0541L15.3412 11.0829L15.405 11.1052L15.469 11.1181L15.5522 11.1308L15.6321 11.1404L15.7152 11.1501L15.7984 11.1566L15.8815 11.1597H15.9679L16.051 11.1566L16.1373 11.1501L16.2236 11.1372L16.31 11.1213L16.3997 11.1022L16.4858 11.0734L16.5753 11.0382L16.6681 10.9997L16.7577 10.9486L16.8505 10.8943L16.7225 11.6809L16.6714 11.7064L16.6201 11.732L16.569 11.7513L16.5211 11.7705L16.4731 11.7864L16.4219 11.8024L16.3708 11.8152L16.3165 11.8247L16.2589 11.8342L16.1949 11.8407L16.1278 11.8472L16.0542 11.8535L15.9711 11.8567H15.8847L15.7857 11.86H15.6801L15.5235 11.8567L15.3635 11.8407L15.2036 11.8183L15.0437 11.7801L14.8871 11.732L14.7368 11.6712L14.5928 11.5913L14.4586 11.4986L14.3339 11.3899L14.2252 11.2589L14.1326 11.1117L14.0557 10.9421L14.0014 10.7535L13.966 10.5392L13.9566 10.3027L13.9728 10.0404L13.9854 9.9382L14.0045 9.81984L14.0301 9.69521L14.0653 9.56092L14.1132 9.42331L14.1708 9.28583L14.2444 9.14516L14.3339 9.01086L14.4363 8.88305L14.5609 8.7615L14.7016 8.65281L14.8616 8.55675L15.0469 8.47685L15.2549 8.41938L15.485 8.38103L15.744 8.36816L15.8688 8.37135L15.9997 8.3841L16.1309 8.40652L16.2621 8.43838L16.3899 8.48653L16.5148 8.54412L16.6298 8.62083L16.7353 8.7104L16.8311 8.81897L16.9113 8.9469L16.975 9.09406L17.0198 9.26352L17.0455 9.4553L17.0488 9.67291L17.0263 9.91578L16.9783 10.1844L16.9624 10.3794H14.6313L14.7783 9.74962H16.179L16.1853 9.6696L16.1821 9.5929L16.1757 9.52256L16.1628 9.45848L16.1405 9.39771L16.1181 9.34342L16.0863 9.29551L16.0542 9.25066L16.0159 9.21231L15.9743 9.18044L15.9263 9.15153L15.8783 9.12604L15.8271 9.10692L15.776 9.09394L15.7217 9.0845L15.6641 9.07813L15.6033 9.08131L15.5458 9.09075L15.4915 9.10374L15.4371 9.12285L15.3828 9.14834L15.3347 9.17714L15.2867 9.21231L15.2453 9.25066L15.2036 9.29551L15.1653 9.34342L15.1301 9.39452L15.1013 9.4488L15.0725 9.50639L15.0501 9.57047L15.0311 9.63444L15.0181 9.70147L14.8902 10.3635Z" fill="white"/>
<path fill-rule="evenodd" clip-rule="evenodd" d="M14.8902 10.3635L14.8808 10.4178L14.8775 10.4754L14.8839 10.5362L14.8967 10.5969L14.9191 10.6576L14.9447 10.7152L14.9798 10.776L15.0182 10.8303L15.0628 10.8845L15.111 10.9326L15.1621 10.9806L15.2197 11.0188L15.2773 11.0541L15.3412 11.0829L15.405 11.1052L15.469 11.1181L15.5522 11.1308L15.6321 11.1404L15.7152 11.1501L15.7984 11.1566L15.8815 11.1597H15.9679L16.051 11.1566L16.1373 11.1501L16.2236 11.1372L16.31 11.1213L16.3997 11.1022L16.4858 11.0734L16.5753 11.0382L16.6681 10.9997L16.7577 10.9486L16.8505 10.8943L16.7225 11.6809L16.6714 11.7064L16.6201 11.732L16.569 11.7513L16.5211 11.7705L16.4731 11.7864L16.4219 11.8024L16.3708 11.8152L16.3165 11.8247L16.2589 11.8342L16.1949 11.8407L16.1278 11.8472L16.0542 11.8535L15.9711 11.8567H15.8847L15.7857 11.86H15.6801L15.5235 11.8567L15.3635 11.8407L15.2036 11.8183L15.0437 11.7801L14.8871 11.732L14.7368 11.6712L14.5928 11.5913L14.4586 11.4986L14.3339 11.3899L14.2252 11.2589L14.1326 11.1117L14.0557 10.9421L14.0014 10.7535L13.966 10.5392L13.9566 10.3027L13.9728 10.0404L13.9854 9.9382L14.0045 9.81984L14.0301 9.69521L14.0653 9.56092L14.1132 9.42331L14.1708 9.28583L14.2444 9.14516L14.3339 9.01086L14.4363 8.88305L14.5609 8.7615L14.7016 8.65281L14.8616 8.55675L15.0469 8.47685L15.2549 8.41938L15.485 8.38103L15.744 8.36816L15.8688 8.37135L15.9997 8.3841L16.1309 8.40652L16.2621 8.43838L16.3899 8.48653L16.5148 8.54412L16.6298 8.62083L16.7353 8.7104L16.8311 8.81897L16.9113 8.9469L16.975 9.09406L17.0198 9.26352L17.0455 9.4553L17.0488 9.67291L17.0263 9.91578L16.9783 10.1844L16.9624 10.3794H14.6313L14.7783 9.74962H16.179L16.1853 9.6696L16.1821 9.5929L16.1757 9.52256L16.1628 9.45848L16.1405 9.39771L16.1181 9.34342L16.0863 9.29551L16.0542 9.25066L16.0159 9.21231L15.9743 9.18044L15.9263 9.15153L15.8783 9.12604L15.8271 9.10692L15.776 9.09394L15.7217 9.0845L15.6641 9.07813L15.6033 9.08131L15.5458 9.09075L15.4915 9.10374L15.4371 9.12285L15.3828 9.14834L15.3347 9.17714L15.2867 9.21231L15.2453 9.25066L15.2036 9.29551L15.1653 9.34342L15.1301 9.39452L15.1013 9.4488L15.0725 9.50639L15.0501 9.57047L15.0311 9.63444L15.0181 9.70147L14.8902 10.3635V10.3635Z" stroke="white" stroke-width="0.904" stroke-miterlimit="2"/>
<path fill-rule="evenodd" clip-rule="evenodd" d="M22.5165 8.627L22.4751 8.60458L22.4334 8.58535L22.3886 8.56304L22.3406 8.54062L22.2926 8.52138L22.2384 8.50226L22.1841 8.48315L22.1265 8.46379L22.0657 8.44786L22.0048 8.43523L21.9378 8.42225L21.8705 8.41269L21.7971 8.40644L21.7235 8.39995H21.487L21.4038 8.40644L21.3175 8.41588L21.2278 8.43205L21.1384 8.45754L21.0487 8.49282L20.9593 8.53743L20.8698 8.59502L20.7835 8.66536L20.7003 8.74844L20.6204 8.85087L20.5436 8.96924L20.4734 9.10991L20.4061 9.2697L20.3453 9.44872L20.2942 9.65336L20.2751 9.76854L20.2621 9.88041L20.2559 9.99229L20.2592 10.101L20.2686 10.2098L20.291 10.3121L20.3197 10.4079L20.355 10.504L20.4029 10.5904L20.4604 10.6735L20.5276 10.747L20.6044 10.8142L20.6907 10.8717L20.7899 10.9196L20.8986 10.9613L21.02 10.9901L21.0617 10.9995L21.1096 11.0092L21.1672 11.0157L21.2311 11.0219L21.3013 11.0283H21.455L21.5349 11.0219L21.618 11.0125L21.7012 10.9963L21.7811 10.9739L21.8611 10.9484L21.9411 10.9133L22.0145 10.8717L22.0818 10.8206L22.1455 10.763L22.0016 11.6167L21.9825 11.6328L21.9634 11.6519L21.9378 11.6743L21.909 11.6936L21.8738 11.7192L21.829 11.7415L21.7779 11.7639L21.7203 11.7829L21.6468 11.8054L21.5637 11.8214L21.4679 11.8341L21.3559 11.847L21.2311 11.8533L21.0871 11.8565L20.9242 11.8533L20.745 11.8437L20.5979 11.8279L20.4508 11.7958L20.3038 11.7478L20.1567 11.6839L20.0159 11.6072L19.8818 11.5112L19.7537 11.3992L19.6356 11.2713L19.53 11.1276L19.4403 10.9675L19.3636 10.7886L19.3061 10.5936L19.2679 10.3793L19.2549 10.1522L19.2614 9.90272L19.2967 9.63743L19.3221 9.5062L19.3509 9.37839L19.3829 9.25365L19.4148 9.13552L19.45 9.02352L19.4916 8.91165L19.5332 8.80603L19.578 8.7069L19.6259 8.60777L19.6738 8.51513L19.7281 8.42556L19.7857 8.34248L19.8433 8.26246L19.9073 8.18576L19.9713 8.11542L20.0384 8.04815L20.112 7.98443L20.1855 7.92353L20.2622 7.86925L20.3421 7.81803L20.4284 7.77L20.5148 7.72858L20.6044 7.6901L20.6971 7.65482L20.7962 7.62296L20.8954 7.59735L20.9977 7.57492L21.1063 7.55581L21.2151 7.53976L21.3301 7.52701L21.4453 7.52064L21.5669 7.51733L21.6692 7.52064L21.7683 7.52701L21.8641 7.53645L21.9602 7.54943L22.0498 7.5623L22.136 7.58141L22.2192 7.59735L22.2959 7.61658L22.3693 7.6357L22.4334 7.65482L22.4942 7.67405L22.5453 7.69329L22.59 7.70922L22.6284 7.72208L22.6572 7.73483L22.6763 7.7412L22.5165 8.627Z" fill="white"/>
<path fill-rule="evenodd" clip-rule="evenodd" d="M22.5165 8.627L22.4751 8.60458L22.4334 8.58535L22.3886 8.56304L22.3406 8.54062L22.2926 8.52138L22.2384 8.50226L22.1841 8.48315L22.1265 8.46379L22.0657 8.44786L22.0048 8.43523L21.9378 8.42225L21.8705 8.41269L21.7971 8.40644L21.7235 8.39995H21.487L21.4038 8.40644L21.3175 8.41588L21.2278 8.43205L21.1384 8.45754L21.0487 8.49282L20.9593 8.53743L20.8698 8.59502L20.7835 8.66536L20.7003 8.74844L20.6204 8.85087L20.5436 8.96924L20.4734 9.10991L20.4061 9.2697L20.3453 9.44872L20.2942 9.65336L20.2751 9.76854L20.2621 9.88041L20.2559 9.99229L20.2592 10.101L20.2686 10.2098L20.291 10.3121L20.3197 10.4079L20.355 10.504L20.4029 10.5904L20.4604 10.6735L20.5276 10.747L20.6044 10.8142L20.6907 10.8717L20.7899 10.9196L20.8986 10.9613L21.02 10.9901L21.0617 10.9995L21.1096 11.0092L21.1672 11.0157L21.2311 11.0219L21.3013 11.0283H21.455L21.5349 11.0219L21.618 11.0125L21.7012 10.9963L21.7811 10.9739L21.8611 10.9484L21.9411 10.9133L22.0145 10.8717L22.0818 10.8206L22.1455 10.763L22.0016 11.6167L21.9825 11.6328L21.9634 11.6519L21.9378 11.6743L21.909 11.6936L21.8738 11.7192L21.829 11.7415L21.7779 11.7639L21.7203 11.7829L21.6468 11.8054L21.5637 11.8214L21.4679 11.8341L21.3559 11.847L21.2311 11.8533L21.0871 11.8565L20.9242 11.8533L20.745 11.8437L20.5979 11.8279L20.4508 11.7958L20.3038 11.7478L20.1567 11.6839L20.0159 11.6072L19.8818 11.5112L19.7537 11.3992L19.6356 11.2713L19.53 11.1276L19.4403 10.9675L19.3636 10.7886L19.3061 10.5936L19.2679 10.3793L19.2549 10.1522L19.2614 9.90272L19.2967 9.63743L19.3221 9.5062L19.3509 9.37839L19.3829 9.25365L19.4148 9.13552L19.45 9.02352L19.4916 8.91165L19.5332 8.80603L19.578 8.7069L19.6259 8.60777L19.6738 8.51513L19.7281 8.42556L19.7857 8.34248L19.8433 8.26246L19.9073 8.18576L19.9713 8.11542L20.0384 8.04815L20.112 7.98443L20.1855 7.92353L20.2622 7.86925L20.3421 7.81803L20.4284 7.77L20.5148 7.72858L20.6044 7.6901L20.6971 7.65482L20.7962 7.62296L20.8954 7.59735L20.9977 7.57492L21.1063 7.55581L21.2151 7.53976L21.3301 7.52701L21.4453 7.52064L21.5669 7.51733L21.6692 7.52064L21.7683 7.52701L21.8641 7.53645L21.9602 7.54943L22.0498 7.5623L22.136 7.58141L22.2192 7.59735L22.2959 7.61658L22.3693 7.6357L22.4334 7.65482L22.4942 7.67405L22.5453 7.69329L22.59 7.70922L22.6284 7.72208L22.6572 7.73483L22.6763 7.7412L22.5165 8.627V8.627Z" stroke="white" stroke-width="0.904" stroke-miterlimit="2"/>
<path fill-rule="evenodd" clip-rule="evenodd" d="M30.389 11.86H29.5033L29.5672 11.5049V11.473L29.5161 11.5368L29.4618 11.5944L29.4074 11.6455L29.3498 11.6904L29.2922 11.7319L29.2346 11.7672L29.1772 11.7959L29.1164 11.8247L29.0556 11.8471L28.9949 11.8631L28.9342 11.8791L28.8702 11.8888L28.8061 11.8982L28.7454 11.9046L28.6816 11.9079H28.6175L28.4513 11.8949L28.2978 11.86L28.1571 11.8057L28.0293 11.7319L27.9141 11.6393L27.8119 11.5305L27.7222 11.4121L27.6455 11.2778L27.5815 11.1338L27.5304 10.9837L27.4952 10.827L27.4696 10.6639L27.46 10.5009L27.4633 10.3345L27.4791 10.1717L27.5081 10.0083L27.556 9.81977L27.6136 9.64062L27.6806 9.47765L27.7605 9.32423L27.8439 9.18026L27.9397 9.05233L28.0388 8.93739L28.1443 8.83165L28.2563 8.73913L28.3746 8.659L28.4961 8.58878L28.6177 8.5345L28.7454 8.48965L28.8734 8.46086L29.0012 8.44162L29.1324 8.43536L29.2251 8.43843L29.3146 8.44799L29.3977 8.46392L29.4746 8.48646L29.5481 8.51207L29.612 8.54087L29.6759 8.57604L29.7335 8.61109L29.7848 8.64956L29.8327 8.69122L29.8741 8.73264L29.9126 8.7743L29.9446 8.81572L29.9734 8.85726L29.999 8.89573L30.0181 8.93408L30.2419 7.67749H31.1116L30.389 11.8598V11.86Z" fill="white"/>
<path fill-rule="evenodd" clip-rule="evenodd" d="M30.389 11.86H29.5033L29.5672 11.5049V11.473L29.5161 11.5368L29.4618 11.5944L29.4074 11.6455L29.3498 11.6904L29.2922 11.7319L29.2346 11.7672L29.1772 11.7959L29.1164 11.8247L29.0556 11.8471L28.9949 11.8631L28.9342 11.8791L28.8702 11.8888L28.8061 11.8982L28.7454 11.9046L28.6816 11.9079H28.6175L28.4513 11.8949L28.2978 11.86L28.1571 11.8057L28.0293 11.7319L27.9141 11.6393L27.8119 11.5305L27.7222 11.4121L27.6455 11.2778L27.5815 11.1338L27.5304 10.9837L27.4952 10.827L27.4696 10.6639L27.46 10.5009L27.4633 10.3345L27.4791 10.1717L27.5081 10.0083L27.556 9.81977L27.6136 9.64062L27.6806 9.47765L27.7605 9.32423L27.8439 9.18026L27.9397 9.05233L28.0388 8.93739L28.1443 8.83165L28.2563 8.73913L28.3746 8.659L28.4961 8.58878L28.6177 8.5345L28.7454 8.48965L28.8734 8.46086L29.0012 8.44162L29.1324 8.43536L29.2251 8.43843L29.3146 8.44799L29.3977 8.46392L29.4746 8.48646L29.5481 8.51207L29.612 8.54087L29.6759 8.57604L29.7335 8.61109L29.7848 8.64956L29.8327 8.69122L29.8741 8.73264L29.9126 8.7743L29.9446 8.81572L29.9734 8.85726L29.999 8.89573L30.0181 8.93408L30.2419 7.67749H31.1116L30.389 11.8598V11.86Z" stroke="white" stroke-width="0.904" stroke-miterlimit="2"/>
<path fill-rule="evenodd" clip-rule="evenodd" d="M28.9406 11.086L29.0302 11.0795L29.1131 11.0604L29.19 11.038L29.2634 11.0028L29.3307 10.9645L29.3947 10.9165L29.4553 10.8622L29.5096 10.8045L29.5575 10.7406L29.6024 10.6703L29.6439 10.5968L29.6791 10.52L29.7112 10.4401L29.7367 10.3569L29.7591 10.2706L29.7751 10.1843L29.7911 10.0946L29.8007 10.002V9.91566L29.7974 9.8262L29.788 9.743L29.775 9.66311L29.7528 9.5864L29.7272 9.51276L29.6952 9.4488L29.6568 9.38814L29.6153 9.3368L29.5672 9.29219L29.5129 9.25372L29.4553 9.22811L29.3947 9.21218L29.3274 9.20581L29.2411 9.21218L29.1612 9.22493L29.0876 9.25054L29.0141 9.28264L28.9501 9.32418L28.8863 9.37528L28.8317 9.42956L28.7775 9.49046L28.7294 9.56079L28.6848 9.63431L28.6432 9.71102L28.6079 9.7941L28.576 9.88049L28.5504 9.96687L28.5248 10.0596L28.5057 10.1523L28.4897 10.2929L28.4961 10.4465L28.5185 10.6031L28.56 10.7534L28.624 10.8844L28.7071 10.9902L28.8126 11.0604L28.9406 11.086Z" fill="#FCB330"/>
<path fill-rule="evenodd" clip-rule="evenodd" d="M9.30407 11.1498L9.17626 11.8598H8.37024L8.39278 11.7286L8.40871 11.6102L8.42169 11.5209L8.43432 11.4727L8.38959 11.5238L8.33849 11.5752L8.27772 11.6231L8.21069 11.6679L8.13374 11.7126L8.05385 11.7511L7.97077 11.7894L7.88438 11.8213L7.79162 11.8501L7.69898 11.8726L7.60623 11.8916L7.51016 11.9045L7.41741 11.9109L7.32488 11.9141L7.2352 11.9044L7.14893 11.8916L7.03705 11.863L6.93474 11.831L6.84516 11.7894L6.76527 11.7414L6.69482 11.6903L6.63085 11.6328L6.57975 11.572L6.53491 11.508L6.49656 11.4409L6.46457 11.3705L6.43897 11.3002L6.41985 11.2297L6.40698 11.1563L6.39754 11.0827L6.39105 11.0124V10.9419L6.40073 10.8174L6.41985 10.699L6.45183 10.587L6.49337 10.4785L6.54447 10.3762L6.60229 10.2834L6.66933 10.1937L6.74603 10.1138L6.82605 10.0402L6.91562 9.97315L7.00826 9.91237L7.1042 9.86127L7.20652 9.81643L7.31214 9.78138L7.42071 9.75235L7.53259 9.73323H7.53896L7.55489 9.73004L7.57743 9.72686L7.6126 9.72379L7.65095 9.71742L7.6958 9.71411L7.74371 9.70774L7.798 9.70125L7.8524 9.69499L7.90669 9.68862L7.96428 9.68532L8.01549 9.67894L8.06659 9.67576L8.11462 9.67269L8.15935 9.66938H8.26804L8.34487 9.67269L8.4152 9.67576H8.48565L8.54301 9.67894L8.58785 9.68213L8.61983 9.68532H8.62928L8.63577 9.66301L8.65488 9.60542L8.67105 9.53815L8.67742 9.4775L8.66456 9.40716L8.63577 9.3432L8.59753 9.28561L8.5462 9.2377L8.48565 9.19627L8.41839 9.16748L8.34156 9.14812L8.25836 9.14175L8.16903 9.13845L8.07297 9.1355H7.97395L7.87152 9.13845L7.76601 9.14494L7.66382 9.15461L7.56138 9.16406L7.46225 9.17704L7.36631 9.18978L7.27355 9.20571L7.19059 9.22176L7.11388 9.2377L7.04342 9.25681L6.98583 9.27617L6.94099 9.29859L6.90594 9.31759L7.133 8.54697L7.20321 8.51829L7.27355 8.4928L7.35038 8.47026L7.42708 8.45433L7.50379 8.43828L7.58711 8.42554L7.67007 8.41267L7.75634 8.40642L7.84603 8.39993L7.93879 8.39674L8.03461 8.39355H8.34144L8.45344 8.39674L8.56531 8.39993L8.655 8.40642L8.75095 8.42235L8.84996 8.44477L8.95239 8.47345L9.05152 8.51192L9.14747 8.55653L9.24329 8.61093L9.33287 8.67171L9.41276 8.74216L9.48321 8.81887L9.54718 8.90514L9.59509 9.00096L9.62707 9.1034L9.64619 9.21209V9.33364L9.62707 9.46157L9.30419 11.1497L9.30407 11.1498Z" fill="white"/>
<path fill-rule="evenodd" clip-rule="evenodd" d="M9.30407 11.1498L9.17626 11.8598H8.37024L8.39278 11.7286L8.40871 11.6102L8.42169 11.5209L8.43432 11.4727L8.38959 11.5238L8.33849 11.5752L8.27772 11.6231L8.21069 11.6679L8.13374 11.7126L8.05385 11.7511L7.97077 11.7894L7.88438 11.8213L7.79162 11.8501L7.69898 11.8726L7.60623 11.8916L7.51016 11.9045L7.41741 11.9109L7.32488 11.9141L7.2352 11.9044L7.14893 11.8916L7.03705 11.863L6.93474 11.831L6.84516 11.7894L6.76527 11.7414L6.69482 11.6903L6.63085 11.6328L6.57975 11.572L6.53491 11.508L6.49656 11.4409L6.46457 11.3705L6.43897 11.3002L6.41985 11.2297L6.40698 11.1563L6.39754 11.0827L6.39105 11.0124V10.9419L6.40073 10.8174L6.41985 10.699L6.45183 10.587L6.49337 10.4785L6.54447 10.3762L6.60229 10.2834L6.66933 10.1937L6.74603 10.1138L6.82605 10.0402L6.91562 9.97315L7.00826 9.91237L7.1042 9.86127L7.20652 9.81643L7.31214 9.78138L7.42071 9.75235L7.53259 9.73323H7.53896L7.55489 9.73004L7.57743 9.72686L7.6126 9.72379L7.65095 9.71742L7.6958 9.71411L7.74371 9.70774L7.798 9.70125L7.8524 9.69499L7.90669 9.68862L7.96428 9.68532L8.01549 9.67894L8.06659 9.67576L8.11462 9.67269L8.15935 9.66938H8.26804L8.34487 9.67269L8.4152 9.67576H8.48565L8.54301 9.67894L8.58785 9.68213L8.61983 9.68532H8.62928L8.63577 9.66301L8.65488 9.60542L8.67105 9.53815L8.67742 9.4775L8.66456 9.40716L8.63577 9.3432L8.59753 9.28561L8.5462 9.2377L8.48565 9.19627L8.41839 9.16748L8.34156 9.14812L8.25836 9.14175L8.16903 9.13845L8.07297 9.1355H7.97395L7.87152 9.13845L7.76601 9.14494L7.66382 9.15461L7.56138 9.16406L7.46225 9.17704L7.36631 9.18978L7.27355 9.20571L7.19059 9.22176L7.11388 9.2377L7.04342 9.25681L6.98583 9.27617L6.94099 9.29859L6.90594 9.31759L7.133 8.54697L7.20321 8.51829L7.27355 8.4928L7.35038 8.47026L7.42708 8.45433L7.50379 8.43828L7.58711 8.42554L7.67007 8.41267L7.75634 8.40642L7.84603 8.39993L7.93879 8.39674L8.03461 8.39355H8.34144L8.45344 8.39674L8.56531 8.39993L8.655 8.40642L8.75095 8.42235L8.84996 8.44477L8.95239 8.47345L9.05152 8.51192L9.14747 8.55653L9.24329 8.61093L9.33287 8.67171L9.41276 8.74216L9.48321 8.81887L9.54718 8.90514L9.59509 9.00096L9.62707 9.1034L9.64619 9.21209V9.33364L9.62707 9.46157L9.30419 11.1497L9.30407 11.1498Z" stroke="white" stroke-width="0.904" stroke-miterlimit="2"/>
<path fill-rule="evenodd" clip-rule="evenodd" d="M8.53359 10.3154L8.53028 10.2992L8.51742 10.2834L8.4983 10.2737L8.46632 10.2673L8.43115 10.261L8.38961 10.2578H8.29367L8.24245 10.261L8.18817 10.2673L8.13707 10.2737L8.08585 10.2801L8.03782 10.2866L7.99309 10.296L7.95462 10.3057L7.91969 10.3154L7.89715 10.3217L7.87154 10.3313L7.83637 10.344L7.80132 10.36L7.75966 10.3792L7.71812 10.4017L7.67328 10.4241L7.63185 10.4496L7.58701 10.4817L7.54547 10.5135L7.507 10.5519L7.47183 10.5904L7.43997 10.6318L7.41754 10.6766L7.39831 10.7279L7.38887 10.779L7.38568 10.8875L7.40149 10.974L7.43359 11.038L7.47502 11.0859L7.52317 11.1179L7.57745 11.137L7.62855 11.1467L7.67977 11.1499L7.77571 11.1467L7.86186 11.137L7.94518 11.1244L8.0187 11.105L8.08266 11.0826L8.14344 11.0539L8.19772 11.0251L8.24576 10.9901L8.28741 10.9581L8.32565 10.9196L8.35763 10.8845L8.38324 10.8461L8.40554 10.8078L8.4249 10.7695L8.44071 10.7342L8.45039 10.6991L8.476 10.6062L8.49842 10.5008L8.51742 10.3985L8.53359 10.3154Z" fill="#ED1B2D"/>
<path fill-rule="evenodd" clip-rule="evenodd" d="M2.57642 11.8599H1.70667L2.43244 7.66138H3.94489L4.08886 10.1523L5.13445 7.66138H6.71417L5.97222 11.8599H5.10247L5.65241 8.7229H5.61736L4.31592 11.8599H3.33429L3.3278 11.7287L3.30538 11.3802L3.2767 10.8845L3.24472 10.3155L3.21262 9.74311L3.18394 9.24097L3.16152 8.87655L3.15515 8.7229H3.10724L2.57642 11.8599Z" fill="white"/>
<path fill-rule="evenodd" clip-rule="evenodd" d="M2.57642 11.8599H1.70667L2.43244 7.66138H3.94489L4.08886 10.1523L5.13445 7.66138H6.71417L5.97222 11.8599H5.10247L5.65241 8.7229H5.61736L4.31592 11.8599H3.33429L3.3278 11.7287L3.30538 11.3802L3.2767 10.8845L3.24472 10.3155L3.21262 9.74311L3.18394 9.24097L3.16152 8.87655L3.15515 8.7229H3.10724L2.57642 11.8599V11.8599Z" stroke="white" stroke-width="0.904" stroke-miterlimit="2"/>
<path fill-rule="evenodd" clip-rule="evenodd" d="M25.1738 11.1498L25.0428 11.8598H24.2401L24.2465 11.7286L24.2498 11.6134V11.5271L24.256 11.4888L24.2145 11.5367L24.1665 11.5846L24.109 11.6294L24.045 11.6743L23.9778 11.7158L23.9011 11.7542L23.8213 11.7925L23.7413 11.8245L23.655 11.8501L23.5653 11.8757L23.4759 11.8916L23.3862 11.9045L23.2935 11.9109L23.2041 11.9141L23.1178 11.9044L23.0314 11.8916L22.9162 11.863L22.8138 11.831L22.7245 11.7894L22.6413 11.7414L22.5709 11.6903L22.5102 11.6328L22.4589 11.572L22.4143 11.508L22.3759 11.4409L22.3471 11.3705L22.3215 11.3002L22.3055 11.2297L22.2927 11.1563L22.2831 11.0827L22.2769 11.0124V10.9419L22.2831 10.8174L22.3023 10.699L22.3311 10.587L22.3727 10.4785L22.4206 10.3762L22.4814 10.2834L22.5486 10.1937L22.622 10.1138L22.7051 10.0402L22.7915 9.97315L22.8843 9.91237L22.9834 9.86127L23.0825 9.81643L23.188 9.78138L23.2935 9.75235L23.4023 9.73323H23.4086L23.4248 9.73004L23.4471 9.72686L23.479 9.72379L23.5206 9.71742L23.5654 9.71411L23.6133 9.70774L23.6644 9.70125L23.719 9.69499L23.7763 9.68862L23.8308 9.68532L23.8851 9.67894L23.9363 9.67576L23.9811 9.67269L24.0258 9.66938H24.1379L24.2146 9.67269L24.288 9.67576H24.3585L24.419 9.67894L24.4704 9.68213L24.4991 9.68532H24.5119L24.5183 9.66301L24.5279 9.60542L24.5374 9.53815L24.5439 9.4775L24.5311 9.40716L24.5055 9.3432L24.464 9.28561L24.4161 9.2377L24.3585 9.19627L24.2912 9.16748L24.2208 9.14812L24.144 9.14175L24.0546 9.13845L23.9588 9.1355H23.8595L23.7572 9.13845L23.6517 9.14494L23.5493 9.15461L23.4471 9.16406L23.3479 9.17704L23.252 9.18978L23.1592 9.20571L23.0762 9.22176L22.9994 9.2377L22.929 9.25681L22.8716 9.27617L22.8268 9.29859L22.7914 9.31759L23.0154 8.54697L23.0857 8.51829L23.1592 8.4928L23.2329 8.47026L23.3096 8.45433L23.3895 8.43828L23.4694 8.42554L23.5526 8.41267L23.6388 8.40642L23.7285 8.39993L23.8213 8.39674L23.9138 8.39355H24.2145L24.3232 8.39674L24.4319 8.39993L24.5216 8.40642L24.6173 8.42235L24.7165 8.44477L24.8188 8.47345L24.918 8.51192L25.0171 8.55653L25.113 8.61093L25.2025 8.67171L25.2825 8.74216L25.356 8.81887L25.42 8.90514L25.4679 9.00096L25.5032 9.1034L25.5255 9.21209V9.33364L25.5096 9.46157L25.1738 11.1498Z" fill="white"/>
<path fill-rule="evenodd" clip-rule="evenodd" d="M25.0428 11.8822L25.0619 11.8631L25.1929 11.1531L25.1546 11.1467L25.0236 11.8566L25.0428 11.8373V11.8822L25.0587 11.879L25.0619 11.8631L25.0428 11.8822Z" fill="white"/>
<path fill-rule="evenodd" clip-rule="evenodd" d="M24.2207 11.8599L24.2401 11.8824H25.0428V11.8374H24.2401L24.2592 11.8598H24.2207L24.2178 11.8822H24.2401L24.2207 11.8598V11.8599Z" fill="white"/>
<path fill-rule="evenodd" clip-rule="evenodd" d="M24.2721 11.5017L24.2433 11.4761L24.2304 11.5273L24.2273 11.6136V11.7287L24.2208 11.86H24.2592L24.2657 11.7287L24.2721 11.6136L24.2689 11.5273V11.5017L24.2401 11.4761L24.2721 11.5017Z" fill="white"/>
<path fill-rule="evenodd" clip-rule="evenodd" d="M23.0282 11.9111L23.1178 11.9238L23.204 11.9334L23.2935 11.9302L23.3862 11.9238L23.479 11.9111L23.5686 11.895L23.6581 11.8694L23.7475 11.8438L23.8275 11.8119L23.9106 11.7736L23.9874 11.7351L24.0546 11.6905L24.1218 11.6457L24.1793 11.6008L24.2304 11.5497L24.272 11.5017L24.2401 11.4761L24.1984 11.524L24.1537 11.5688L24.0961 11.6137L24.0353 11.6585L23.9683 11.6968L23.8915 11.7351L23.8147 11.7736L23.7349 11.8056L23.6517 11.8312L23.5622 11.8567L23.4725 11.8726L23.3862 11.8856L23.2935 11.8917L23.204 11.895L23.1178 11.8856L23.0346 11.8726L23.0282 11.9111Z" fill="white"/>
<path fill-rule="evenodd" clip-rule="evenodd" d="M22.2544 10.942L22.2575 11.0124L22.264 11.0827L22.2735 11.1595L22.2863 11.2331L22.3023 11.3033L22.3279 11.3769L22.3567 11.4504L22.3981 11.5177L22.443 11.5846L22.4942 11.6454L22.5582 11.7062L22.6317 11.7574L22.7148 11.8085L22.8075 11.8501L22.913 11.8821L23.0282 11.9109L23.0346 11.8725L22.9195 11.8437L22.8203 11.8118L22.7339 11.7703L22.6508 11.7254L22.5838 11.6742L22.5262 11.6199L22.4751 11.5591L22.4302 11.4984L22.3948 11.4313L22.3663 11.3641L22.3405 11.297L22.3247 11.2266L22.3117 11.153L22.3023 11.0827L22.2959 11.0124L22.2991 10.9419H22.2544V10.942ZM23.4023 9.71412L23.2904 9.73324L23.1815 9.76203L23.0761 9.79732L22.9738 9.84193L22.8747 9.89326L22.7787 9.95711L22.6925 10.0244L22.6093 10.1011L22.5326 10.181L22.4653 10.2705L22.4013 10.3665L22.3534 10.472L22.3119 10.5806L22.2831 10.6957L22.264 10.8173L22.2545 10.9419H22.2991L22.3023 10.8174L22.3214 10.7022L22.3502 10.5935L22.3919 10.4849L22.4398 10.3857L22.4974 10.296L22.5644 10.2065L22.6349 10.1266L22.7179 10.0564L22.8043 9.98909L22.8939 9.9315L22.993 9.8804L23.089 9.83567L23.1944 9.80051L23.2967 9.77171L23.4023 9.75236V9.71412ZM24.0609 9.64697H24.0258L23.9809 9.65335L23.9363 9.65653L23.885 9.65984L23.8308 9.66621L23.7763 9.66939L23.7189 9.67577L23.6644 9.68214L23.6133 9.68863L23.5654 9.695L23.5206 9.69819L23.479 9.70444L23.447 9.70775L23.4214 9.71094L23.4086 9.71412H23.4023V9.75236H23.4086L23.4279 9.74941L23.447 9.7461L23.479 9.74292L23.5206 9.73654L23.5654 9.73324L23.6133 9.72687L23.6644 9.72061L23.7189 9.71412L23.7763 9.70775L23.8308 9.70444L23.8851 9.69819L23.9363 9.695L23.981 9.69182H24.0609V9.64697ZM24.4926 9.68214L24.5119 9.66621H24.4991L24.4703 9.66302L24.419 9.65984L24.3584 9.65335H24.2145L24.1378 9.64697H24.0609V9.69182H24.2145L24.288 9.69819H24.419L24.4703 9.70126L24.4991 9.70444H24.5119L24.5311 9.68863L24.5119 9.70444L24.5279 9.70775L24.5311 9.68863L24.4926 9.68214Z" fill="white"/>
<path fill-rule="evenodd" clip-rule="evenodd" d="M24.5248 9.47755H24.5214L24.5183 9.53833L24.5086 9.60229L24.4991 9.65988L24.4927 9.6823L24.5311 9.68868L24.5374 9.66625L24.5471 9.60866L24.5567 9.53833L24.5662 9.47755H24.5248ZM24.144 9.16104V9.16411L24.2178 9.16753L24.2848 9.18665L24.3488 9.21545L24.4031 9.25368L24.4479 9.29853L24.4863 9.35281L24.5119 9.4104L24.5248 9.47755H24.563L24.5502 9.40403L24.5248 9.33381L24.4799 9.27304L24.4287 9.22182L24.3681 9.17697L24.2977 9.14818L24.2242 9.12906L24.144 9.11938V9.16104Z" fill="white"/>
<path fill-rule="evenodd" clip-rule="evenodd" d="M22.7723 9.31448L22.8043 9.33384L22.8363 9.31767L22.8778 9.29525L22.9321 9.27625L23.0026 9.25689L23.0793 9.24096L23.1624 9.22491L23.2551 9.20898L23.348 9.19635L23.447 9.18337L23.5492 9.17381L23.6516 9.16414L23.7572 9.15788H24.0545L24.144 9.16107V9.12271L24.0545 9.11941L23.9587 9.11304H23.8595L23.7572 9.11941L23.6516 9.1259L23.5492 9.13558L23.447 9.14502L23.3479 9.15788L23.2488 9.17063L23.156 9.18668L23.0728 9.20261L22.9961 9.21866L22.9259 9.23778L22.8651 9.25689L22.8171 9.27943L22.7787 9.30186L22.8107 9.32097L22.7723 9.31448Z" fill="white"/>
<path fill-rule="evenodd" clip-rule="evenodd" d="M23.009 8.52808L22.9961 8.54413L22.7723 9.31463L22.8107 9.32112L23.0346 8.55038L23.0217 8.56643L23.009 8.52808L22.9994 8.53126L22.9961 8.54413L23.0091 8.52808H23.009Z" fill="white"/>
<path fill-rule="evenodd" clip-rule="evenodd" d="M24.4318 8.38077L24.3232 8.3744L24.2144 8.37109H23.9138L23.8212 8.37758L23.7283 8.38077L23.6387 8.38703L23.5525 8.39352L23.4661 8.40638L23.3862 8.41913L23.3063 8.43517L23.2296 8.45111L23.1529 8.47341L23.0792 8.49902L23.0089 8.52781L23.0217 8.56617L23.0921 8.53737L23.1656 8.51188L23.236 8.48946L23.3127 8.47341L23.3926 8.45748L23.4726 8.44462L23.5525 8.43199L23.6387 8.4255L23.7284 8.41913L23.8212 8.41582H24.2144L24.3231 8.41913H24.4318V8.38077ZM25.5286 9.46472L25.5445 9.33372V9.21217L25.5221 9.10017L25.4869 8.99467L25.436 8.89554L25.3719 8.80585L25.2952 8.72608L25.2153 8.65574L25.1226 8.59496L25.0266 8.53737L24.9244 8.49277L24.8252 8.45429L24.7196 8.4255L24.6205 8.40308L24.5214 8.38703L24.4318 8.38077V8.41913L24.5215 8.4255L24.614 8.44143L24.7131 8.46385L24.8123 8.49277L24.9114 8.531L25.0073 8.57585L25.1033 8.62694L25.1897 8.68772L25.2696 8.75806L25.34 8.83146L25.4037 8.91466L25.4487 9.00742L25.4838 9.10655L25.5062 9.21205V9.3336L25.4901 9.45823L25.5286 9.46472Z" fill="white"/>
<path fill-rule="evenodd" clip-rule="evenodd" d="M25.1929 11.153L25.5286 9.46474L25.4902 9.45825L25.1545 11.1467L25.1929 11.153Z" fill="white"/>
<path fill-rule="evenodd" clip-rule="evenodd" d="M24.3999 10.3154L24.3935 10.2961L24.3808 10.2801L24.3584 10.2706L24.3265 10.2611L24.2912 10.2578L24.2498 10.2546H24.2016L24.1537 10.2578L24.1026 10.2642L24.0515 10.2706L24.0002 10.2769L23.9523 10.2834L23.9044 10.2929L23.8627 10.2992L23.8213 10.3089L23.7892 10.3154L23.7669 10.3185L23.7413 10.328L23.7094 10.3377L23.674 10.3505L23.6327 10.3697L23.5942 10.3888L23.5494 10.4112L23.5079 10.44L23.4662 10.4688L23.4248 10.504L23.3895 10.539L23.3543 10.5807L23.3255 10.6254L23.3031 10.6735L23.284 10.7246L23.2744 10.7789L23.2711 10.8877L23.2873 10.974L23.3128 11.038L23.3512 11.0859L23.3992 11.1179L23.4534 11.137L23.5079 11.1467L23.5621 11.1499L23.6582 11.1467L23.7475 11.137L23.8309 11.1211L23.9044 11.0987L23.9748 11.0732L24.0354 11.0444L24.093 11.0125L24.1441 10.974L24.1889 10.9388L24.2273 10.8973L24.2624 10.8589L24.2912 10.8174L24.3136 10.779L24.3297 10.7405L24.3423 10.7023L24.352 10.6671L24.365 10.5774L24.3808 10.4849L24.3935 10.3952L24.3999 10.3154Z" fill="#FCB330"/>
<path fill-rule="evenodd" clip-rule="evenodd" d="M25.4136 11.86H26.3152L26.6383 10.0404L26.6511 9.97018L26.6702 9.89973L26.6894 9.82951L26.715 9.75906L26.747 9.68884L26.7852 9.62157L26.8269 9.55761L26.878 9.49695L26.9356 9.44267L26.9995 9.39145L27.0731 9.34342L27.1563 9.30518L27.249 9.2732L27.3512 9.24759L27.4632 9.22824L27.588 9.22198H27.6678L27.8118 8.40015L27.7221 8.40664L27.6359 8.41608L27.556 8.43225L27.479 8.45455L27.4088 8.48016L27.3415 8.51202L27.2778 8.54719L27.217 8.58554L27.1595 8.63039L27.1052 8.67523L27.0539 8.72633L27.0028 8.77755L26.9547 8.83184L26.9068 8.89249L26.8589 8.95008L26.814 9.01405L26.9101 8.43543H26.0115L25.4136 11.86Z" fill="white"/>
<path fill-rule="evenodd" clip-rule="evenodd" d="M25.4136 11.86H26.3152L26.6383 10.0404L26.6511 9.97018L26.6702 9.89973L26.6894 9.82951L26.715 9.75906L26.747 9.68884L26.7852 9.62157L26.8269 9.55761L26.878 9.49695L26.9356 9.44267L26.9995 9.39145L27.0731 9.34342L27.1563 9.30518L27.249 9.2732L27.3512 9.24759L27.4632 9.22824L27.588 9.22198H27.6678L27.8118 8.40015L27.7221 8.40664L27.6359 8.41608L27.556 8.43225L27.479 8.45455L27.4088 8.48016L27.3415 8.51202L27.2778 8.54719L27.217 8.58554L27.1595 8.63039L27.1052 8.67523L27.0539 8.72633L27.0028 8.77755L26.9547 8.83184L26.9068 8.89249L26.8589 8.95008L26.814 9.01405L26.9101 8.43543H26.0115L25.4136 11.86V11.86Z" stroke="white" stroke-width="0.904" stroke-miterlimit="2"/>
<path fill-rule="evenodd" clip-rule="evenodd" d="M16.9464 11.86H17.8641L18.1711 10.0404L18.1838 9.97018L18.1999 9.90292L18.2158 9.83589L18.2382 9.77192L18.2637 9.70796L18.2956 9.64718L18.3342 9.58959L18.3788 9.53531L18.4301 9.48728L18.4877 9.43936L18.5579 9.40101L18.6346 9.36572L18.7242 9.33693L18.8233 9.31144L18.9321 9.29551L19.0568 9.28583H19.0663L19.0793 9.28902L19.0951 9.29232H19.1111L19.1272 9.29551L19.1398 9.29869L19.1495 9.30188H19.1527L19.1559 9.28902L19.1653 9.25066L19.1783 9.19319L19.1943 9.12285L19.2167 9.03966L19.2391 8.95008L19.2679 8.86051L19.2967 8.77118L19.3222 8.7104L19.3542 8.64962L19.3863 8.58885L19.4181 8.53456L19.4468 8.48653L19.4693 8.44806L19.4853 8.42576L19.4916 8.41608H19.4885L19.4756 8.41289L19.4597 8.40982L19.4372 8.40664H19.4148L19.3892 8.40345L19.3669 8.40015H19.3445L19.2454 8.40664L19.1559 8.41608L19.0728 8.43225L18.996 8.45136L18.9225 8.47685L18.8552 8.50884L18.7947 8.54094L18.7371 8.57917L18.6828 8.62083L18.6315 8.66874L18.5835 8.71677L18.5356 8.77106L18.4877 8.82546L18.4429 8.88624L18.395 8.95008L18.3468 9.01405L18.462 8.43543H17.5443L16.9464 11.86Z" fill="white"/>
<path fill-rule="evenodd" clip-rule="evenodd" d="M16.9464 11.86H17.8641L18.1711 10.0404L18.1838 9.97018L18.1999 9.90292L18.2158 9.83589L18.2382 9.77192L18.2637 9.70796L18.2956 9.64718L18.3342 9.58959L18.3788 9.53531L18.4301 9.48728L18.4877 9.43936L18.5579 9.40101L18.6346 9.36572L18.7242 9.33693L18.8233 9.31144L18.9321 9.29551L19.0568 9.28583H19.0663L19.0793 9.28902L19.0951 9.29232H19.1111L19.1272 9.29551L19.1398 9.29869L19.1495 9.30188H19.1527L19.1559 9.28902L19.1653 9.25066L19.1783 9.19319L19.1943 9.12285L19.2167 9.03966L19.2391 8.95008L19.2679 8.86051L19.2967 8.77118L19.3222 8.7104L19.3542 8.64962L19.3863 8.58885L19.4181 8.53456L19.4468 8.48653L19.4693 8.44806L19.4853 8.42576L19.4916 8.41608H19.4885L19.4756 8.41289L19.4597 8.40982L19.4372 8.40664H19.4148L19.3892 8.40345L19.3669 8.40015H19.3445L19.2454 8.40664L19.1559 8.41608L19.0728 8.43225L18.996 8.45136L18.9225 8.47685L18.8552 8.50884L18.7947 8.54094L18.7371 8.57917L18.6828 8.62083L18.6315 8.66874L18.5835 8.71677L18.5356 8.77106L18.4877 8.82546L18.4429 8.88624L18.395 8.95008L18.3468 9.01405L18.462 8.43543H17.5443L16.9464 11.86V11.86Z" stroke="white" stroke-width="0.904" stroke-miterlimit="2"/>
<path fill-rule="evenodd" clip-rule="evenodd" d="M30.9838 15.2938L30.9934 15.2236H31.0861V15.2268L31.0797 15.2938H30.9838Z" fill="#FCB330"/>
</g>
<defs>
<clipPath id="clip0">
<rect width="31.7453" height="19" fill="white" transform="translate(0.804932)"/>
</clipPath>
</defs>
</svg>
