<svg width="19" height="19" viewBox="0 0 19 19" fill="none" xmlns="http://www.w3.org/2000/svg">
<g clip-path="url(#clip0)">
<path d="M18.3907 11.7566C17.1903 16.5709 12.3146 19.5 7.50039 18.3001C2.68812 17.0999 -0.241768 12.224 0.959238 7.41038C2.15853 2.59594 7.03432 -0.333722 11.847 0.866254C16.6615 2.06646 19.5903 6.94282 18.3906 11.7566" fill="#F7931A"/>
<path d="M11.6888 8.28567C11.4107 9.39934 9.69484 8.83346 9.13857 8.69474L9.62937 6.72641C10.1856 6.86502 11.9783 7.12392 11.6888 8.28567ZM11.3838 11.4619C11.0792 12.6858 9.01782 12.0245 8.34916 11.8582L8.89089 9.68801C9.55921 9.85477 11.7022 10.1852 11.3838 11.4618V11.4619ZM13.6363 8.3033C13.8153 7.10767 12.9049 6.46499 11.6598 6.03612L12.0639 4.41654L11.0781 4.1708L10.6849 5.7478C10.4223 5.68328 10.1591 5.62132 9.89525 5.56192L10.2909 3.9745L9.30591 3.72876L8.90187 5.34788C8.69156 5.30061 8.48171 5.25127 8.27236 5.19989L8.2735 5.19485L6.91374 4.85537L6.65152 5.90838C6.65152 5.90838 7.3829 6.07606 7.36722 6.08636C7.76679 6.18605 7.83902 6.45034 7.82689 6.6598L7.36677 8.50486C7.39446 8.51195 7.43017 8.52237 7.46943 8.53782C7.43624 8.52969 7.40122 8.52065 7.36528 8.51195L6.72065 11.0968C6.67178 11.2181 6.54782 11.3997 6.26889 11.3309C6.27839 11.3452 5.55238 11.152 5.55238 11.152L5.0625 12.2808L6.3458 12.601C6.58422 12.6608 6.81817 12.7231 7.04857 12.7821L6.64042 14.4203L7.6251 14.666L8.02913 13.0449C8.29822 13.118 8.55907 13.1854 8.81489 13.249L8.41222 14.862L9.39816 15.1077L9.80609 13.4729C11.487 13.7911 12.7514 13.6627 13.2835 12.1424C13.7123 10.9182 13.2623 10.2119 12.3777 9.75119C13.0219 9.60239 13.5071 9.17856 13.6365 8.3033" fill="white"/>
</g>
<defs>
<clipPath id="clip0">
<rect width="18.3133" height="19" fill="white" transform="translate(0.550232)"/>
</clipPath>
</defs>
</svg>
