<svg width="37" height="11" viewBox="0 0 37 11" fill="none" xmlns="http://www.w3.org/2000/svg">
<g clip-path="url(#clip0)">
<path fill-rule="evenodd" clip-rule="evenodd" d="M26.754 4.9986V10.5553H29.8411V7.26238H33.3397C34.8122 7.25149 36.063 6.3109 36.5346 4.99854H26.754V4.9986Z" fill="#37A72E"/>
<path fill-rule="evenodd" clip-rule="evenodd" d="M26.3427 0.419434C26.5225 2.69069 28.6712 4.48407 31.2955 4.48407H36.6632C36.7035 4.27205 36.7236 4.05672 36.7236 3.84093C36.7236 1.95947 35.2056 0.433377 33.3278 0.419536L26.3427 0.419434Z" fill="url(#paint0_linear)"/>
<path fill-rule="evenodd" clip-rule="evenodd" d="M21.7737 4.42997L21.7761 4.42481H21.7764C21.7961 4.3893 21.827 4.36125 21.8642 4.34499C21.9014 4.32873 21.9429 4.32515 21.9824 4.33481C22.0218 4.34446 22.057 4.36682 22.0825 4.39844C22.108 4.43005 22.1224 4.46917 22.1235 4.50978V10.5037H25.2106V0.419434H22.1235C21.732 0.432462 21.2898 0.719769 21.1253 1.07234L18.6686 6.34074C18.6626 6.362 18.6532 6.38215 18.6408 6.4004L18.64 6.40217L18.6397 6.40204C18.6147 6.43807 18.5789 6.46517 18.5374 6.47941C18.4959 6.49364 18.451 6.49426 18.4091 6.48118C18.3673 6.46809 18.3307 6.44198 18.3047 6.40665C18.2788 6.37133 18.2648 6.32863 18.2648 6.28479V0.419434H15.1777V10.5037H18.2648V10.5026C18.6519 10.4824 19.0838 10.1983 19.246 9.8508L21.7673 4.44357C21.7692 4.43897 21.7714 4.43444 21.7736 4.42997H21.7737ZM10.2463 4.60236L8.44211 10.5037H6.22131L4.41602 4.59877C4.40671 4.54899 4.37917 4.50448 4.33877 4.47395C4.29837 4.44341 4.24804 4.42906 4.19761 4.43369C4.14718 4.43832 4.1003 4.4616 4.06614 4.49898C4.03198 4.53636 4.01299 4.58514 4.01291 4.63578V10.5037H0.925842V0.419434H4.36473C4.93273 0.419434 5.52799 0.860245 5.69396 1.40314L7.19639 6.31727C7.27116 6.56178 7.39238 6.56146 7.46702 6.31727L8.96946 1.40314C9.13555 0.859867 9.73062 0.419434 10.2987 0.419434H13.7371V10.5037H10.65V4.63836V4.63584C10.65 4.58484 10.6309 4.5357 10.5963 4.49817C10.5618 4.46065 10.5144 4.43748 10.4636 4.43326C10.4128 4.42905 10.3622 4.44409 10.322 4.47542C10.2817 4.50674 10.2547 4.55205 10.2463 4.60236Z" fill="#37A72E"/>
</g>
<defs>
<linearGradient id="paint0_linear" x1="26.3427" y1="2.45175" x2="36.7236" y2="2.45175" gradientUnits="userSpaceOnUse">
<stop stop-color="#00A0E5"/>
<stop offset="1" stop-color="#0077C3"/>
</linearGradient>
<clipPath id="clip0">
<rect width="36" height="10.4476" fill="white" transform="translate(0.863525 0.276123)"/>
</clipPath>
</defs>
</svg>
