<svg width="22" height="19" viewBox="0 0 22 19" fill="none" xmlns="http://www.w3.org/2000/svg">
<g clip-path="url(#clip0)">
<path d="M4.59662 11.5628H15.8144C17.8056 11.5628 19.4364 9.93197 19.4364 7.94074V3.75605C19.4364 1.76483 17.8056 0.134033 15.8144 0.134033H4.59662C2.60528 0.134033 0.974487 1.76483 0.974487 3.75605V7.94063C0.974487 9.93197 2.60528 11.5628 4.59662 11.5628Z" fill="#758D96"/>
<path d="M4.22739 6.53425C4.43399 6.67057 4.79876 6.81123 5.15038 6.81123C5.66029 6.81123 5.89779 6.55622 5.89779 6.23975C5.89779 5.90576 5.69989 5.72114 5.18128 5.53205C4.4911 5.28597 4.16146 4.90345 4.16146 4.44196C4.16146 3.82217 4.66256 3.31226 5.48894 3.31226C5.88016 3.31226 6.21861 3.42214 6.43402 3.54964L6.2581 4.05955C6.10873 3.96283 5.8274 3.83533 5.47132 3.83533C5.05813 3.83533 4.8252 4.07271 4.8252 4.3584C4.8252 4.67488 5.05378 4.82001 5.55487 5.00898C6.22296 5.26399 6.56588 5.59798 6.56588 6.16947C6.56588 6.84637 6.04281 7.32115 5.1284 7.32115C4.70651 7.32115 4.31529 7.21561 4.04712 7.05743L4.22739 6.53436V6.53425ZM7.47135 4.44631C7.47135 4.05074 7.46254 3.7211 7.44056 3.40451H8.05154L8.08244 4.0243H8.10431C8.31972 3.65952 8.67579 3.31661 9.31321 3.31661C9.83628 3.31661 10.2362 3.63308 10.4033 4.09034H10.4208C10.5395 3.87493 10.689 3.70782 10.8516 3.58913C11.0847 3.41332 11.3352 3.31672 11.7043 3.31672C12.2144 3.31672 12.9704 3.65071 12.9704 4.987V7.25522H12.2846V5.07491C12.2846 4.33643 12.0121 3.88798 11.4494 3.88798C11.0539 3.88798 10.7418 4.18259 10.6231 4.52551C10.5923 4.62211 10.5658 4.74962 10.5658 4.87712V7.25522H9.88023V4.9474C9.88023 4.33643 9.61206 3.88809 9.07582 3.88809C8.64065 3.88809 8.31971 4.23971 8.20984 4.58697C8.17023 4.6925 8.15261 4.8112 8.15261 4.92989V7.25075H7.467V4.44631H7.47135ZM14.0122 6.53425C14.2188 6.67057 14.5836 6.81123 14.9353 6.81123C15.4452 6.81123 15.6826 6.55622 15.6826 6.23975C15.6826 5.90576 15.4847 5.72114 14.9661 5.53205C14.2759 5.28597 13.9462 4.90345 13.9462 4.44196C13.9462 3.82217 14.4473 3.31226 15.2737 3.31226C15.6649 3.31226 16.0034 3.42214 16.2188 3.54964L16.043 4.05955C15.8935 3.96283 15.6122 3.83533 15.2561 3.83533C14.8429 3.83533 14.61 4.07271 14.61 4.3584C14.61 4.67488 14.8385 4.82001 15.3396 5.00898C16.0078 5.26399 16.3506 5.59798 16.3506 6.16947C16.3506 6.84637 15.8276 7.32115 14.9133 7.32115C14.4913 7.32115 14.1001 7.21561 13.8319 7.05743L14.0122 6.53436V6.53425Z" fill="white"/>
<path d="M20.0913 16.407H11.0319C10.5791 16.407 10.2098 16.0378 10.2098 15.585V9.81789C10.2098 9.36509 10.5791 8.99585 11.0319 8.99585H20.0913C20.5441 8.99585 20.9134 9.36509 20.9134 9.81789V15.5806C20.9134 16.0378 20.5441 16.407 20.0913 16.407Z" fill="#EFEFEF"/>
<path d="M4.18329 15.0179V10.7231H9.55045L4.18329 15.0177V15.0179Z" fill="#758D96"/>
<path fill-rule="evenodd" clip-rule="evenodd" d="M15.1507 11.4661H15.9726V12.2881H15.1507V11.4661ZM13.5022 11.4661H14.3243V12.2881H13.5022V11.4661ZM11.8538 11.4661H12.6759V12.2881H11.8538V11.4661ZM16.7946 11.4661H17.6167V12.2881H16.7946V11.4661ZM18.443 11.4661H19.265V12.2881H18.443V11.4661ZM15.1507 13.1145H15.9726V13.9365H15.1507V13.1145ZM16.7946 13.1145H17.6167V13.9365H16.7946V13.1145ZM18.443 13.1145H19.265V13.9365H18.443V13.1145Z" fill="#758D96"/>
<path d="M18.443 18.8773V15.585H14.3243L18.443 18.8773Z" fill="#EFEFEF"/>
</g>
<defs>
<clipPath id="clip0">
<rect width="20.259" height="19" fill="white" transform="translate(0.863464)"/>
</clipPath>
</defs>
</svg>
