<svg width="37" height="9" viewBox="0 0 37 9" fill="none" xmlns="http://www.w3.org/2000/svg">
<g clip-path="url(#clip0)">
<path d="M6.38383 0.288818C2.97013 0.288818 0.20874 1.90637 0.20874 3.91447C0.20874 4.76515 0.708266 5.54602 1.55473 6.17352C1.13845 5.65761 0.902573 5.08587 0.902573 4.47231C0.902573 2.39451 3.6085 0.707137 6.93892 0.707137C9.08992 0.707137 10.9772 1.4044 12.0457 2.46422C11.0881 1.18128 8.9095 0.288818 6.38383 0.288818Z" fill="#84C551"/>
<path d="M3.63598 3.47371C3.81359 3.32617 4.03401 3.25235 4.29745 3.25235C4.55471 3.25235 4.77357 3.32752 4.95435 3.47787C5.13487 3.62821 5.23455 3.82034 5.25286 4.05418H3.29606C3.34496 3.81487 3.45827 3.62129 3.63598 3.47371ZM5.84088 4.9394C6.09194 4.9394 6.29405 4.88665 6.44726 4.78073C6.62481 4.66389 6.71362 4.49409 6.71362 4.27132C6.71362 3.8593 6.57888 3.47787 6.3094 3.12713C6.03987 2.77634 5.69396 2.51195 5.27128 2.33362C4.97734 2.21126 4.6496 2.14998 4.2883 2.14998C3.5593 2.14998 2.96067 2.38668 2.4922 2.85983C2.02368 3.33309 1.78937 3.90383 1.78937 4.57202C1.78937 5.24572 2.03424 5.81225 2.52435 6.27161C3.0143 6.73098 3.62682 6.96061 4.36176 6.96061C4.75365 6.96061 5.13029 6.90489 5.4918 6.79361C5.92047 6.66553 6.23272 6.47908 6.42884 6.23395C6.53913 6.1004 6.59422 5.96676 6.59422 5.83311C6.59422 5.48227 6.3981 5.3069 6.00621 5.3069C5.92042 5.3069 5.69995 5.38077 5.34473 5.52825C4.98952 5.67584 4.68633 5.74961 4.43526 5.74961C4.13509 5.74961 3.8808 5.68001 3.67271 5.54079C3.46441 5.40173 3.34496 5.20124 3.31448 4.9394H5.84088ZM7.54037 6.25908C7.99349 6.7213 8.59379 6.95228 9.3411 6.95228C9.78798 6.95228 10.1617 6.88549 10.4619 6.75179C10.8783 6.56263 11.0867 6.33149 11.0867 6.05863C11.0867 5.8972 11.0329 5.75934 10.9258 5.64525C10.8187 5.53112 10.6792 5.47394 10.5079 5.47394C10.3914 5.47394 10.2444 5.50739 10.0668 5.57424C9.88911 5.64104 9.69615 5.67444 9.48806 5.67444C9.13274 5.67444 8.85713 5.56311 8.66121 5.3404C8.48958 5.1399 8.40395 4.87261 8.40395 4.53857C8.40395 4.22123 8.48667 3.95684 8.65205 3.74516C8.83574 3.51132 9.09602 3.39432 9.43292 3.39432C9.64101 3.39432 9.83859 3.42923 10.0255 3.49883C10.2122 3.56849 10.3638 3.60319 10.4803 3.60319C10.6578 3.60319 10.8049 3.54753 10.9212 3.4362C11.0375 3.32476 11.0958 3.18846 11.0958 3.02683C11.0958 2.7151 10.8937 2.48121 10.4895 2.3253C10.1893 2.21402 9.83714 2.1583 9.43292 2.1583C8.66121 2.1583 8.04244 2.38247 7.5771 2.83065C7.11154 3.27888 6.87895 3.85654 6.87895 4.56354C6.87895 5.24842 7.09932 5.81365 7.54037 6.25908ZM12.8964 3.77856C13.074 3.5392 13.325 3.41934 13.6498 3.41934C13.9682 3.41934 14.2161 3.54196 14.3938 3.78688C14.5531 3.99857 14.6328 4.25457 14.6328 4.55527C14.6328 4.8672 14.5561 5.12606 14.4031 5.33202C14.2254 5.57705 13.9743 5.69946 13.6498 5.69946C13.3311 5.69946 13.0831 5.5771 12.9056 5.33202C12.7462 5.1205 12.6667 4.86153 12.6667 4.55521C12.6667 4.24916 12.7431 3.99024 12.8964 3.77851V3.77856ZM11.8216 6.26745C12.2992 6.74071 12.9086 6.97731 13.6498 6.97731C14.3969 6.97731 15.0063 6.74346 15.4779 6.27577C15.9312 5.81927 16.1578 5.24842 16.1578 4.56359C16.1578 3.87335 15.9282 3.29698 15.4688 2.83481C15.0094 2.37269 14.4031 2.1416 13.6498 2.1416C12.9086 2.1416 12.3039 2.37414 11.8352 2.83897C11.3668 3.3039 11.1325 3.87871 11.1325 4.56354C11.1325 5.24306 11.3622 5.81095 11.8216 6.26745Z" fill="#143C65"/>
<path d="M18.2433 5.92887V4.88918H19.2722C19.9949 4.88918 20.5644 4.70835 20.981 4.34632C21.3975 3.98445 21.6058 3.47493 21.6058 2.81793C21.6058 2.15537 21.3761 1.64029 20.9167 1.27274C20.4818 0.922056 19.8938 0.746582 19.1528 0.746582H17.7747C17.3765 0.746582 17.101 0.818894 16.9479 0.963518C16.7948 1.10809 16.7182 1.36118 16.7182 1.72243V5.92611C16.7182 6.58228 16.9723 6.91033 17.4808 6.91033C17.989 6.91033 18.2433 6.58321 18.2433 5.92887ZM18.2433 2.02448H18.9048C19.6029 2.02448 19.9521 2.28902 19.9521 2.81793C19.9521 3.35804 19.603 3.62804 18.9048 3.62804H18.2433V2.02448H18.2433ZM25.8979 6.91033C26.3878 6.91033 26.6328 6.58134 26.6328 5.92314V3.20374C26.6328 2.55137 26.3878 2.22492 25.8979 2.22492C25.5977 2.22492 25.3618 2.36695 25.1905 2.65084C24.8903 2.32798 24.4923 2.16645 23.9962 2.16645C23.3163 2.16645 22.7559 2.41699 22.315 2.91818C21.8983 3.38587 21.6902 3.9343 21.6902 4.56342C21.6902 5.18717 21.8891 5.72998 22.2874 6.1921C22.7222 6.69314 23.2734 6.94379 23.9411 6.94379C24.4678 6.94379 24.8842 6.77393 25.1905 6.43427C25.3374 6.75161 25.5732 6.91028 25.8979 6.91028L25.8979 6.91033ZM23.4622 3.80336C23.6389 3.57524 23.8797 3.46104 24.1845 3.46104C24.4952 3.46104 24.736 3.57524 24.9067 3.80336C25.0529 4.00385 25.1262 4.25164 25.1262 4.54677C25.1262 4.8419 25.0529 5.09249 24.9067 5.2984C24.736 5.53224 24.4952 5.64924 24.1845 5.64924C23.8736 5.64924 23.6297 5.53224 23.453 5.2984C23.3005 5.09254 23.2245 4.8419 23.2245 4.54672C23.2245 4.25731 23.3037 4.00947 23.4622 3.80336ZM30.078 2.75946L29.1685 4.91426L28.3233 2.8763C28.2314 2.64808 28.1487 2.49508 28.0751 2.41694C27.9526 2.28902 27.7842 2.22498 27.57 2.22498C27.3616 2.22498 27.1886 2.28902 27.0509 2.41694C26.913 2.54502 26.8441 2.70359 26.8441 2.8928C26.8441 3.0265 26.8717 3.15166 26.9268 3.26866L28.4237 6.44962L27.8119 7.65968C27.7301 7.83125 27.6894 7.98352 27.6894 8.11654C27.6894 8.31595 27.7567 8.47368 27.8915 8.59006C28.0261 8.70622 28.2038 8.76439 28.4243 8.76439C28.6876 8.76439 28.905 8.58345 29.0766 8.22153L31.3457 3.33567C31.4253 3.16316 31.4652 3.00725 31.4652 2.86798C31.4652 2.43931 31.2202 2.22498 30.7303 2.22498C30.4485 2.22498 30.2311 2.40315 30.0779 2.75946H30.078ZM35.1152 5.59072H33.6484L35.6203 3.28677C35.8213 3.05266 35.9218 2.85487 35.9218 2.69318C35.9218 2.51474 35.8451 2.40191 35.6921 2.35451C35.5389 2.30717 35.303 2.2834 34.9847 2.2834H32.6052C31.9743 2.2834 31.6589 2.48665 31.6589 2.89311C31.6589 3.30513 31.9713 3.51114 32.5961 3.51114H33.873L31.8335 5.90811C31.6865 6.08072 31.6129 6.25344 31.6129 6.42595C31.6129 6.70443 31.8733 6.84348 32.394 6.84348H35.1041C35.7289 6.84348 36.0412 6.63763 36.0412 6.22545C36.0412 5.8024 35.7326 5.59077 35.1152 5.59077V5.59072Z" fill="#84C551"/>
</g>
<defs>
<clipPath id="clip0">
<rect width="36" height="8.63584" fill="white" transform="translate(0.122559 0.182129)"/>
</clipPath>
</defs>
</svg>
