<svg width="37" height="7" viewBox="0 0 37 7" fill="none" xmlns="http://www.w3.org/2000/svg">
<g clip-path="url(#clip0)">
<path d="M0.0852051 6.82248V0.196045H2.23219C3.04588 0.196045 3.57605 0.229317 3.82321 0.295531C4.20293 0.395016 4.52085 0.611264 4.77694 0.944233C5.03304 1.27724 5.16108 1.70738 5.16108 2.23478C5.16108 2.64161 5.08722 2.98354 4.93954 3.26076C4.79186 3.53809 4.60434 3.75562 4.37685 3.91384C4.14932 4.07206 3.91815 4.17683 3.68301 4.22796C3.36364 4.2912 2.90114 4.3229 2.29534 4.3229H1.42291V6.82265H0.0852051V6.82248ZM1.42307 1.31709V3.19748H2.15543C2.6827 3.19748 3.0353 3.16292 3.21315 3.09349C3.39088 3.02417 3.53033 2.91576 3.63131 2.76808C3.73208 2.6204 3.78262 2.44871 3.78262 2.25267C3.78262 2.01171 3.71186 1.8129 3.57018 1.65613C3.42853 1.49953 3.24936 1.40153 3.03237 1.36239C2.8727 1.33221 2.55168 1.31713 2.06959 1.31713H1.42307V1.31709ZM11.5502 6.82248H10.0947L9.51613 5.31718H6.86738L6.32048 6.82248H4.90115L7.48215 0.196045H8.89694L11.5502 6.82248H11.5502ZM9.08673 4.20081L8.17372 1.74198L7.27876 4.20081H9.08673ZM13.1576 6.82248V4.03354L10.7303 0.196045H12.2988L13.8583 2.81772L15.3862 0.196045H16.9275L14.4912 4.04263V6.82248H13.1576Z" fill="black"/>
<path d="M17.5823 6.82248V0.196045H22.4957V1.31709H18.9203V2.78606H22.2471V3.9026H18.9203V5.70619H22.6223V6.82269H17.5822V6.82253L17.5823 6.82248ZM23.7566 6.82248V0.196045H28.67V1.31709H25.0946V2.78606H28.4214V3.9026H25.0946V5.70619H28.7966V6.82269H23.7566V6.82253V6.82248ZM29.9355 6.82248V0.196045H32.7516C33.4596 0.196045 33.9743 0.255563 34.2951 0.37464C34.616 0.493758 34.8729 0.705459 35.0659 1.00974C35.2587 1.31415 35.3552 1.66225 35.3552 2.05387C35.3552 2.55109 35.209 2.96172 34.9167 3.28564C34.6244 3.60956 34.1874 3.81378 33.606 3.89818C33.8953 4.06693 34.134 4.25227 34.3225 4.45413C34.5108 4.65604 34.7648 5.01467 35.084 5.52991L35.8932 6.82265H34.2929L33.3255 5.38079C32.982 4.86538 32.747 4.54072 32.6204 4.40652C32.4939 4.27248 32.3598 4.18064 32.2181 4.13083C32.0765 4.08103 31.852 4.05623 31.5445 4.05623H31.2734V6.82265H29.9355V6.82248ZM31.2735 2.99847H32.2634C32.9053 2.99847 33.3059 2.97139 33.4657 2.91721C33.6254 2.86298 33.7504 2.76965 33.841 2.63694C33.9313 2.50434 33.9766 2.33864 33.9766 2.13971C33.9766 1.91673 33.9171 1.73669 33.798 1.59955C33.6789 1.46241 33.511 1.37586 33.294 1.33965C33.1856 1.32457 32.8601 1.31709 32.3178 1.31709H31.2737V2.99847H31.2735Z" fill="#64B3DF"/>
</g>
<defs>
<clipPath id="clip0">
<rect width="36" height="6.86108" fill="white" transform="translate(0.0140991 0.0695801)"/>
</clipPath>
</defs>
</svg>
