<svg width="37" height="7" viewBox="0 0 37 7" fill="none" xmlns="http://www.w3.org/2000/svg">
<g clip-path="url(#clip0)">
<path d="M33.6593 3.09245C33.4547 3.23508 33.1578 3.30562 32.7514 3.30562H32.3485L32.6575 1.63675H32.9538C33.291 1.63675 33.5374 1.69104 33.7071 1.80124C33.8398 1.88761 33.9971 2.05866 33.9971 2.38325C33.9971 2.7743 33.8141 2.98469 33.6593 3.09245ZM9.62111 5.18689H6.50266L6.70421 4.09609H8.66022L8.8825 2.86746H6.94526L7.13252 1.78785H10.2456L9.62111 5.18693V5.18689ZM35.3392 0.851578C34.8807 0.537196 34.1869 0.378906 33.2772 0.378906H30.8948L30.0092 5.18709H26.8883L27.0884 4.09625H28.9687L29.1922 2.87099L27.3131 2.87437L27.5144 1.78821H29.4506L29.7082 0.379063H25.775L24.9344 4.94035H23.4922L24.3389 0.379063H22.2827L21.442 4.94035H20.0358L20.8833 0.379063H18.8291L17.9413 5.18724H14.7982L14.9963 4.09641H16.885L17.1074 2.87822L15.2216 2.87645L15.4219 1.78821H17.3796L17.636 0.379063H5.38226L4.68475 4.18941L3.2952 0.378906H1.16249L0.0146484 6.59705H2.0513L2.7459 2.68196L4.0945 6.59701H11.3944L12.2817 1.78805H13.424L12.5361 6.59701H31.7443L32.3006 3.56112L33.2024 6.59701H35.2402L34.3066 4.11647L34.5197 4.07038C34.9893 3.96988 35.3569 3.75317 35.612 3.42862C35.8675 3.10097 35.9972 2.68035 35.9972 2.1751C35.9974 1.58661 35.7825 1.15399 35.3393 0.851539" fill="#8DC640"/>
</g>
<defs>
<clipPath id="clip0">
<rect width="36" height="6.24209" fill="white" transform="translate(0.0140991 0.378906)"/>
</clipPath>
</defs>
</svg>
