<svg width="37" height="7" viewBox="0 0 37 7" fill="none" xmlns="http://www.w3.org/2000/svg">
<g clip-path="url(#clip0)">
<path d="M0.055603 3.48424C0.055603 5.29755 1.4816 6.65301 3.36525 6.65301C4.0347 6.65301 4.61464 6.50816 5.11733 6.15187V4.968C4.62591 5.28509 3.97142 5.49021 3.35429 5.49021C2.16031 5.49021 1.26891 4.65426 1.26891 3.48424C1.26891 2.31414 2.16031 1.47839 3.35429 1.47839C3.97142 1.47839 4.62591 1.68347 5.11733 2.00056V0.816652C4.61464 0.460394 4.03474 0.31543 3.36525 0.31543C1.4816 0.315468 0.055603 1.67101 0.055603 3.48424ZM28.4443 1.86331C27.0958 1.86331 26.0023 2.93822 26.0023 4.25818C26.0023 5.57814 27.0959 6.65301 28.4443 6.65301C29.7925 6.65301 30.8862 5.57822 30.8862 4.25818C30.8862 2.93814 29.7924 1.86331 28.4443 1.86331ZM28.4443 5.67249C27.6617 5.67249 27.0394 5.04081 27.0394 4.25818C27.0394 3.47567 27.6617 2.84392 28.4443 2.84392C29.2268 2.84392 29.8491 3.47567 29.8491 4.25818C29.8491 5.04081 29.2267 5.67249 28.4443 5.67249ZM34.7724 1.95765L32.7452 4.93721V1.95765H31.7243V6.55883H32.7614L34.7873 3.58869V6.55883H35.8244V1.95762H34.7724L34.7724 1.95765ZM9.77259 4.13575C10.0272 3.98481 10.2723 3.63596 10.2723 3.24941C10.2723 2.5046 9.70669 1.95769 8.93352 1.95769H6.34453V6.55871H9.03708C9.81033 6.55871 10.3949 6.00247 10.3949 5.2389C10.3949 4.72032 10.0838 4.30545 9.77259 4.13575ZM7.38166 2.86283H8.77324C9.03708 2.86283 9.23514 3.05131 9.23514 3.3059C9.23514 3.56048 9.03708 3.74917 8.77324 3.74917H7.38166V2.86283ZM8.83918 5.65369H7.38166V4.65426H8.83918C9.14091 4.65426 9.35769 4.87095 9.35769 5.15394C9.35769 5.43677 9.14091 5.65369 8.83918 5.65369ZM12.9188 1.95773C12.0042 1.95773 11.3159 2.64594 11.3159 3.54169C11.3159 4.2686 11.7795 4.86154 12.4507 5.05146L11.1935 6.55883H12.5324L13.7355 5.11624H14.3108V6.55883H15.348V1.95773H12.9188ZM13.0602 2.86283H14.3108V4.21115H13.0602C12.6455 4.21115 12.3532 3.89996 12.3532 3.54177C12.3531 3.1646 12.6455 2.86283 13.0602 2.86283ZM22.101 1.95765H21.0639V6.55883H22.1011V4.69196H24.1269V6.55883H25.1641V1.95762H24.1269V3.78683H22.101V1.95762V1.95765ZM16.3731 6.29066V5.27286C16.7779 5.48492 17.2729 5.67249 17.8388 5.67249C18.5266 5.67249 18.9606 5.46713 18.9606 5.10193C18.9606 4.77603 18.5814 4.65102 18.0986 4.65102H17.3072V3.74593H18.0986C18.5903 3.74593 18.8657 3.56542 18.8657 3.31836C18.8657 2.95601 18.4311 2.844 17.9288 2.844C17.3481 2.844 16.8768 3.01223 16.4919 3.19964V2.21297C16.8912 2.01638 17.4201 1.86331 18.0785 1.86331C19.0825 1.86331 19.8985 2.39737 19.8985 3.13369C19.8985 3.67038 19.584 4.00059 19.3315 4.11183C19.6555 4.2647 20.0217 4.64562 20.0217 5.19623C20.0217 6.05942 19.1929 6.65297 17.9799 6.65297C17.2839 6.65301 16.7745 6.50249 16.3731 6.29066Z" fill="#4C1E87"/>
<path d="M33.6886 1.70893C34.4856 1.70893 35.0936 1.216 35.1593 0.492877L34.3285 0.38916C34.3285 0.701778 34.045 0.941778 33.6886 0.941778C33.3323 0.941778 33.0486 0.701778 33.0486 0.38916L32.2178 0.492877C32.2837 1.216 32.8916 1.70893 33.6886 1.70893Z" fill="#E41D94"/>
</g>
<defs>
<clipPath id="clip0">
<rect width="36" height="6.40515" fill="white" transform="translate(0.0140991 0.297363)"/>
</clipPath>
</defs>
</svg>
