<svg width="37" height="19" viewBox="0 0 37 19" fill="none" xmlns="http://www.w3.org/2000/svg">
<g clip-path="url(#clip0)">
<path d="M0.102722 0.832764H17.3297V18.0583H0.102722V0.832764Z" fill="#ED1F24"/>
<path d="M8.71587 2.60205C11.1641 2.60205 13.7802 6.97877 13.7802 10.7688C13.7802 13.7459 12.0301 16.2855 8.71597 16.2855C5.39926 16.2855 3.65399 13.7459 3.65399 10.7688C3.65399 6.97877 6.26755 2.60205 8.71597 2.60205H8.71587Z" fill="white"/>
<path d="M18.552 0.840332H35.777V18.0656H18.552V0.840332Z" fill="#ED1F24"/>
<path d="M19.813 7.41108H21.6268L22.2191 9.84391H22.229L22.8221 7.41119H24.6344V11.5464H23.4293V8.89231H23.4168L22.6996 11.5463H21.7486L21.0301 8.89231H21.0196V11.5463H19.813V7.41129V7.41108ZM26.4878 8.47015H25.3297V7.41108H28.9221V8.47015H27.7613V11.5464H26.4878V8.47015ZM31.9982 8.95008C31.9748 8.80106 31.8579 8.34248 31.3332 8.34248C30.735 8.34248 30.5435 8.92235 30.5435 9.47972C30.5435 10.036 30.735 10.6145 31.3332 10.6145C31.7601 10.6145 31.929 10.3135 32.0037 9.92323H33.2553C33.2553 10.7575 32.5772 11.6458 31.3663 11.6458C30.0273 11.6458 29.2701 10.7014 29.2701 9.47972C29.2701 8.17524 30.092 7.31323 31.3663 7.31323C32.5025 7.31784 33.1286 7.91414 33.2364 8.94998H31.9982V8.95008Z" fill="white"/>
</g>
<defs>
<clipPath id="clip0">
<rect width="36" height="17.3721" fill="white" transform="translate(0.0140991 0.813965)"/>
</clipPath>
</defs>
</svg>
