<svg width="36" height="13" viewBox="0 0 36 13" fill="none" xmlns="http://www.w3.org/2000/svg">
<g clip-path="url(#clip0)">
<path d="M25.4505 3.3791C26.2461 3.3791 26.8906 2.73485 26.8906 1.94C26.8906 1.145 26.2461 0.5 25.4505 0.5C24.6562 0.5 24.0117 1.145 24.0117 1.94C24.0117 2.73478 24.6563 3.3791 25.4505 3.3791ZM14.4209 4.1561C14.3557 4.31953 13.8882 5.64065 12.7568 7.00985V1.1552L9.74284 1.75085V12.3635H12.7568V9.083C13.6299 10.3921 14.0609 12.3635 14.0609 12.3635H17.6711C17.3139 10.8789 15.7518 8.14145 15.7518 8.14145C17.1538 6.3641 17.7696 4.4702 17.8674 4.15603H14.4209V4.1561ZM22.3444 4.04548C19.6449 4.13217 18.2743 5.34335 18.2743 7.751V12.3635H21.2198V8.60195C21.2198 7.1606 21.4086 6.54238 23.1191 6.48357V4.08778C22.8312 4.0265 22.3443 4.04548 22.3443 4.04548H22.3444ZM4.68822 5.32475C4.31899 5.30075 3.46437 5.2454 3.46437 4.4759C3.46437 3.5474 4.69482 3.5474 5.15637 3.5474C5.96787 3.5474 7.01884 3.78695 7.76944 4.01165C7.76944 4.01165 8.18824 4.15925 8.54449 4.31038L8.57764 4.31938V1.7765L8.53219 1.76315C7.64629 1.4534 6.61632 1.1552 4.70674 1.1552C1.41417 1.1552 0.24762 3.07325 0.24762 4.71628C0.24762 5.66345 0.65337 7.8929 4.42437 8.15008C4.74387 8.16958 5.59212 8.21855 5.59212 9.01355C5.59212 9.67025 4.89762 10.0572 3.72972 10.0572C2.44969 10.0572 1.20747 9.73093 0.45342 9.42125V12.0401C1.58269 12.3359 2.85529 12.4839 4.34727 12.4839C7.56664 12.4839 9.00852 10.6692 9.00852 8.87068C9.00852 6.83143 7.39497 5.50618 4.68814 5.32483L4.68822 5.32475ZM23.9906 12.3635H26.9118V4.16548H23.9906V12.3635ZM32.4126 1.67765V12.3635H35.3345V1.1552L32.4126 1.67765ZM28.1495 1.67765L31.0683 1.1552V12.3635H28.1495V1.67765Z" fill="#862165"/>
</g>
<defs>
<clipPath id="clip0">
<rect width="35.1" height="12" fill="white" transform="translate(0.247009 0.5)"/>
</clipPath>
</defs>
</svg>
