<svg width="37" height="7" viewBox="0 0 37 7" fill="none" xmlns="http://www.w3.org/2000/svg">
<g clip-path="url(#clip0)">
<path d="M19.9159 3.1099C19.6219 3.1099 19.3827 3.34991 19.3827 3.64302C19.3827 3.93911 19.6219 4.177 19.9159 4.177C20.2094 4.177 20.4481 3.93911 20.4481 3.64302C20.4481 3.34991 20.2094 3.1099 19.9159 3.1099ZM1.44553 3.61668C1.44553 3.61668 1.71101 2.72672 1.7518 2.58737C1.85932 2.22501 2.01986 1.65492 2.01986 1.65492H2.04662C2.04662 1.65492 2.19447 2.24583 2.2909 2.58227C2.32913 2.71268 2.58276 3.61668 2.58276 3.61668H1.44553ZM3.06407 5.23313H4.02627L2.57292 0.791683C2.42006 0.739873 2.22887 0.708008 2.0275 0.708008C1.80706 0.708008 1.72845 0.736884 1.55554 0.791683L0.0147705 5.23313H0.936176C0.936176 5.23313 1.05981 4.84443 1.21104 4.361H2.80449C2.94808 4.84401 3.06407 5.23313 3.06407 5.23313ZM7.81172 2.02708L7.80832 5.06574C8.20425 5.23313 8.63927 5.30874 9.0254 5.30874C9.91241 5.30874 10.3869 4.85037 10.3869 4.09461C10.3869 3.4111 9.96682 2.988 9.18174 2.988C8.98252 2.988 8.86524 3.01434 8.6465 3.06702V2.02705H7.81172V2.02708ZM9.52329 4.13329C9.52329 4.44679 9.41285 4.66175 9.01182 4.66175C8.87675 4.66175 8.82149 4.66175 8.64605 4.61248V3.69615C8.86357 3.65368 8.88269 3.64687 9.01182 3.64687C9.39499 3.64687 9.52332 3.83295 9.52332 4.13329H9.52329ZM18.4966 4.9281C18.2765 4.59291 18.2192 4.3954 18.2192 3.97355V3.11796C18.2192 2.65534 18.1656 2.48584 18.0428 2.31633C17.8738 2.07844 17.5913 1.97565 17.07 1.97565C16.703 1.97565 16.341 2.01558 15.9957 2.10353L16.1193 2.7165C16.3542 2.6838 16.5989 2.65534 16.7757 2.65534C17.3288 2.65534 17.3929 2.73607 17.3929 3.15024V3.30529C17.2697 3.27259 17.1312 3.24837 16.9702 3.24837C16.1355 3.24837 15.6953 3.65577 15.6953 4.32781C15.6953 4.95952 16.1652 5.30489 16.7408 5.30489C16.9545 5.30489 17.1779 5.26493 17.3542 5.19359C17.4604 5.14685 17.5068 5.12009 17.6444 5.02957C17.7285 5.15196 17.8942 5.27559 17.9621 5.29724L18.4966 4.92807V4.9281ZM17.4354 4.56192C17.2519 4.62523 17.1312 4.64052 16.9863 4.64052C16.6877 4.64052 16.5178 4.52199 16.5178 4.21613C16.5178 3.8971 16.7323 3.7892 17.1457 3.7892C17.2455 3.7892 17.3457 3.80404 17.3929 3.82062V4.04916C17.3929 4.29553 17.4048 4.45698 17.4354 4.56192ZM7.14989 5.23313V2.17146C6.69152 2.03511 6.3385 1.97565 5.87843 1.97565C5.41877 1.97565 5.07468 2.03511 4.61634 2.17146V3.73903C4.61634 4.16512 4.60908 4.29341 4.56238 4.43105C4.51651 4.55212 4.45445 4.69654 4.28623 4.80871L4.51348 5.29724C5.18428 5.10821 5.43663 4.81677 5.43663 3.88942V2.73607C5.65794 2.70375 5.70211 2.6961 5.87843 2.6961C6.05641 2.6961 6.09338 2.70375 6.31383 2.73607V5.2331H7.14989V5.23313ZM13.4685 6.2739V5.13243C13.5743 5.19487 13.7854 5.28751 14.141 5.28751C14.8483 5.28751 15.3695 4.69956 15.3695 3.62564C15.3695 2.46888 14.8517 1.97357 14.0004 1.97357C13.7841 1.97357 13.6435 1.99563 13.4685 2.07934V0.715236H12.6367V2.07931C12.4621 1.9956 12.3202 1.97353 12.1044 1.97353C11.2535 1.97353 10.7357 2.48921 10.7357 3.64559C10.7357 4.71992 11.2039 5.28748 11.963 5.28748C12.3202 5.28748 12.531 5.19484 12.6367 5.13239V6.2739H13.4685ZM11.593 3.64559C11.593 3.00749 11.7854 2.67063 12.1686 2.67063C12.3304 2.67063 12.4375 2.66935 12.6367 2.76452V4.519C12.4558 4.57842 12.3699 4.58694 12.2085 4.58694C11.7722 4.58694 11.593 4.23052 11.593 3.64559ZM14.5122 3.62561C14.5122 4.20974 14.279 4.58694 13.8963 4.58694C13.7357 4.58694 13.6503 4.57846 13.4685 4.51897V2.76449C13.6681 2.66935 13.7756 2.67063 13.9366 2.67063C14.3202 2.67063 14.5122 2.98754 14.5122 3.62561Z" fill="#EE3423"/>
<path d="M21.5549 0.732026H22.4706V2.65799C22.6726 2.63905 22.8116 2.58224 22.881 2.50013C22.9568 2.41805 23.0642 2.1844 23.2157 1.7992C23.4051 1.30667 23.5946 1.00356 23.784 0.883567C23.9735 0.763578 24.2829 0.706764 24.6996 0.706764C24.7186 0.706764 24.7628 0.706764 24.8323 0.700439V1.3761H24.7059C24.5165 1.3761 24.3776 1.39507 24.2955 1.4456C24.2071 1.48976 24.1376 1.55923 24.0871 1.65395C24.0303 1.74868 23.9545 1.94445 23.8472 2.23492C23.7903 2.39279 23.7335 2.52539 23.664 2.62644C23.6009 2.73378 23.4872 2.83479 23.323 2.9232C23.5251 2.98005 23.6956 3.10003 23.8282 3.27684C23.9608 3.44732 24.1061 3.69362 24.2639 4.01564L24.8828 5.25333H23.8093L23.2662 4.0851C23.2599 4.06616 23.241 4.03461 23.2157 3.99041C23.203 3.97144 23.1652 3.90197 23.102 3.77569C22.982 3.55469 22.8873 3.41576 22.8115 3.35891C22.7358 3.3021 22.6221 3.27684 22.4706 3.27684V5.25336H21.5549V0.731992V0.732026ZM25.6241 1.97601H28.5225V5.25333H27.6637V2.68325H26.4829V4.15456C26.4829 4.52714 26.4387 4.79235 26.3503 4.9376C26.2619 5.08914 26.1672 5.19019 26.0662 5.24071C25.9588 5.28491 25.7883 5.31018 25.561 5.31018C25.422 5.31018 25.2389 5.2912 25.0116 5.25333V4.61554C25.0305 4.61554 25.0811 4.61554 25.1568 4.62187C25.2452 4.62819 25.321 4.62819 25.3652 4.62819C25.4852 4.62819 25.5546 4.59032 25.5862 4.51453C25.6115 4.43874 25.6241 4.22403 25.6241 3.87042V1.97601H25.6241ZM29.3776 1.97601H30.2111V4.03461L31.5435 1.97601H32.396V5.25333H31.5625V3.15685L30.2111 5.25333H29.3776V1.97601ZM33.2459 1.97601H34.111V3.31471C34.2563 3.3021 34.3573 3.2579 34.4142 3.18211C34.4773 3.11265 34.5468 2.95478 34.6352 2.71484C34.7425 2.39279 34.8625 2.1844 34.9951 2.09596C35.1277 2.00127 35.2982 1.95707 35.5129 1.95707C35.5824 1.95707 35.696 1.96339 35.8539 1.96968L35.8602 2.54433C35.6329 2.54433 35.4877 2.56959 35.4245 2.61383C35.3614 2.65799 35.2919 2.79059 35.2161 3.01796C35.1151 3.31471 34.9699 3.50417 34.7804 3.57359C35.0519 3.64942 35.2856 3.88936 35.475 4.2872C35.4877 4.30614 35.494 4.32508 35.5066 4.35034L35.9928 5.25333H35.0646L34.6288 4.30614C34.5405 4.11669 34.4647 3.99041 34.4015 3.93988C34.3384 3.88303 34.2374 3.85777 34.111 3.85777V5.25333H33.2459V1.97601Z" fill="#FF0900"/>
</g>
<defs>
<clipPath id="clip0">
<rect width="36" height="5.59459" fill="white" transform="translate(0.0141602 0.702637)"/>
</clipPath>
</defs>
</svg>
