<svg width="36" height="13" viewBox="0 0 36 13" fill="none" xmlns="http://www.w3.org/2000/svg">
<g clip-path="url(#clip0)">
<path d="M6.69317 6.16198C6.235 5.43888 5.9681 4.68873 5.89256 3.91148C5.2262 3.37025 4.16377 3.10451 2.70526 3.11427C2.66929 3.70533 2.758 4.29734 2.96565 4.85189H2.95097C3.10221 5.20884 3.31304 5.53748 3.57447 5.82374C3.57533 5.83489 3.58058 5.84524 3.58907 5.85251C3.68146 5.95384 3.78343 6.04601 3.89355 6.12772C4.53512 6.61921 5.29524 6.92362 6.17398 7.04095C6.25501 6.70256 6.4359 6.39634 6.69317 6.16206V6.16198ZM3.60331 6.49054C3.50709 6.41362 3.41524 6.3314 3.32818 6.24425C2.6517 6.42772 1.90292 6.84786 1.08215 7.50483C1.41721 7.99669 1.85789 8.40751 2.37201 8.70729C2.79723 8.95012 3.27376 9.08917 3.76285 9.11312H3.89304C4.75741 9.1048 5.58418 8.84536 6.37343 8.33463C6.22238 8.0836 6.13779 7.79821 6.12765 7.50541C5.16143 7.37651 4.31991 7.03827 3.60331 6.49054Z" fill="#FF4081"/>
<path d="M8.78406 5.97352C9.24071 5.26993 9.49885 4.54386 9.55864 3.79516V3.76646C9.56861 3.67509 9.57353 3.58321 9.57324 3.49133C9.56726 2.95619 9.4226 2.43174 9.15338 1.96921C8.88389 1.48747 8.48399 1.05764 7.9536 0.679932H7.95035C7.41888 1.05584 7.01803 1.48574 6.74789 1.96979C6.47864 2.43229 6.33393 2.9567 6.32789 3.49184C6.32764 3.58377 6.33252 3.67565 6.34249 3.76704V3.79574C6.39996 4.51769 6.64278 5.2189 7.07088 5.89906C7.33823 5.76089 7.63709 5.69511 7.93774 5.70826C8.2384 5.72141 8.53037 5.81304 8.78464 5.97403L8.78406 5.97352Z" fill="#FF4182"/>
<path d="M7.41413 6.22448C7.39222 6.23185 7.36909 6.23742 7.34762 6.24703C6.7936 6.47315 6.47162 7.06238 6.58041 7.65082C6.58721 7.68855 6.59393 7.72636 6.60355 7.76344C6.61309 7.80067 6.62487 7.83848 6.63796 7.87621C6.72998 8.12884 6.89596 8.3479 7.11427 8.50484C7.13285 8.51727 7.15092 8.52964 7.17066 8.54149C7.21186 8.56701 7.25437 8.59014 7.29803 8.61082C7.32846 8.626 7.35955 8.64074 7.39164 8.65368C7.54237 8.71368 7.70299 8.74477 7.86514 8.74556C7.88046 8.74556 7.89449 8.74159 7.90916 8.74108V8.73653C8.08049 8.72879 8.24892 8.69055 8.40695 8.62383C8.63806 8.52272 8.83473 8.35648 8.97293 8.14544C9.11112 7.93439 9.18486 7.68766 9.18514 7.4354C9.18514 6.72407 8.59981 6.13867 7.88849 6.13867C7.80169 6.13871 7.71511 6.14742 7.63005 6.1647C7.6114 6.16867 7.59348 6.17149 7.57374 6.17605C7.51952 6.1887 7.46617 6.20482 7.41413 6.22448Z" fill="#FFD800"/>
<path d="M12.2905 5.13816H11.6016V5.02539H13.5838C14.6199 5.02539 15.4199 5.38055 15.4199 6.38168C15.4199 7.36264 14.4947 7.73811 13.6531 7.73811C13.4163 7.73811 13.1384 7.68968 12.9992 7.6197V9.81267H13.71V9.92544H11.6016V9.81267H12.29L12.2905 5.13816ZM13.0002 7.48214C13.162 7.57912 13.3473 7.62965 13.5359 7.62816C13.9947 7.62816 14.6696 7.38469 14.6696 6.44435C14.6696 5.53337 14.2524 5.137 13.4242 5.137H12.9998L13.0002 7.48214Z" fill="#00B0FF"/>
<path d="M16.4115 7.1829H15.8551V7.07013H16.4115C16.6342 7.07013 16.8568 7.05661 16.9955 6.91738V9.81271H17.5519V9.92548H15.8551V9.81271H16.4115V7.18283V7.1829ZM16.7034 5.31177C16.898 5.31177 17.0581 5.47189 17.0581 5.66635C17.0581 5.86095 16.898 6.02092 16.7034 6.02092C16.5092 6.02092 16.3492 5.86131 16.3489 5.66692C16.3494 5.47232 16.5094 5.31235 16.704 5.31177H16.7034ZM20.4563 9.54777C20.4563 9.68027 20.4772 9.85391 20.6649 9.85391C20.8251 9.85391 20.9219 9.72133 21.0269 9.57545L21.1035 9.6317C20.9717 9.86129 20.7907 10.0073 20.4912 10.0073C20.1643 10.0073 19.9276 9.8195 19.8791 9.57603H19.8649C19.6282 9.88883 19.3153 10.0073 18.8564 10.0073C18.3142 10.0073 17.9871 9.73608 17.9871 9.26309C17.9871 8.48396 19.0233 8.2895 19.7398 8.2895H19.8717V7.43317C19.8717 7.10678 19.5656 7.03008 19.3013 7.03008C19.0994 7.03008 18.6246 7.10671 18.6246 7.35705C18.6246 7.5262 18.8542 7.44784 18.8542 7.76078C18.8542 7.92979 18.7149 8.05268 18.5339 8.05268C18.3395 8.05268 18.2278 7.89994 18.2278 7.66319C18.2278 7.30803 18.6034 6.91897 19.299 6.91897C19.8277 6.91897 20.4536 7.19013 20.4536 7.72579L20.4563 9.54777ZM19.7539 8.39996C19.2466 8.39996 18.6134 8.41406 18.6134 9.15827C18.6134 9.54777 18.6761 9.83982 19.1209 9.83982C19.6423 9.83982 19.8723 9.45032 19.8723 9.31095V8.39996H19.7539ZM21.5381 8.91524H21.6283C21.6847 9.26989 21.8646 9.89562 22.5951 9.89562C22.978 9.89562 23.2718 9.64536 23.2718 9.249C23.2718 8.69931 22.8545 8.69259 22.4858 8.65088C22.0349 8.60244 21.5957 8.53811 21.5957 7.81601C21.5957 7.31476 21.9227 6.91897 22.465 6.91897C22.8405 6.91897 23.0981 7.16259 23.1673 7.16259C23.2091 7.16259 23.2159 7.11415 23.2159 7.01656V6.96018H23.3134L23.341 7.78774H23.2509C23.2024 7.39312 22.9932 7.02943 22.4441 7.02943C22.0895 7.02943 21.8042 7.22411 21.8042 7.58591C21.8042 7.94786 22.0754 8.073 22.5372 8.10068L22.7733 8.11478C23.3371 8.1497 23.5665 8.45295 23.5665 8.93555C23.5665 9.58218 23.1352 10.0067 22.5997 10.0067C22.0501 10.0067 21.8832 9.70789 21.744 9.70789C21.6538 9.70789 21.6746 9.82066 21.6604 9.96495H21.5516L21.5381 8.91524Z" fill="#03A9F4"/>
<path d="M3.89305 9.57656H3.8783C3.46307 10.2045 3.19733 11.1029 3.08124 12.2717C3.72013 12.3684 4.30943 12.3395 4.84907 12.185C5.31411 12.0457 5.74394 11.8085 6.10965 11.4893V11.4747L6.19639 11.3878H6.21223C6.78996 10.7767 7.17512 10.0164 7.36791 9.1069C7.10383 9.02813 6.86228 8.88763 6.66324 8.69702C5.77741 9.27476 4.85398 9.56782 3.89312 9.57656H3.89305Z" fill="#FF4081"/>
<path d="M24.6 7.1829H23.9949V7.07013C24.7183 7.08415 24.9827 6.77808 25.1011 6.09647H25.1845V7.07013H26.1429V7.1829H25.1845V9.52023C25.1845 9.80541 25.3024 9.89562 25.5228 9.89562C25.8706 9.89562 26.0239 9.57545 26.0651 9.45755L26.1694 9.47844C26.121 9.6476 25.9191 10.0073 25.4044 10.0073C24.9179 10.0073 24.5977 9.84704 24.5977 9.38707L24.6 7.1829ZM27.1909 7.1829H26.6068V7.07013H27.1909C27.4165 7.07013 27.6363 7.05661 27.7755 6.91738V7.73815H27.7896C27.873 7.42521 28.1166 6.91738 28.6865 6.91738C28.9441 6.91738 29.146 7.08647 29.146 7.32777C29.146 7.50878 29.0333 7.6548 28.8257 7.6548C28.5963 7.6548 28.5196 7.53632 28.5196 7.34866C28.5164 7.28971 28.5289 7.23098 28.5557 7.1784C28.5826 7.12582 28.6228 7.08126 28.6724 7.04924C28.643 7.03185 28.6088 7.02451 28.5748 7.02835C28.2896 7.02835 27.7749 7.47943 27.7749 8.38478V9.81271H28.4075V9.92548H26.6035V9.81271H27.1876L27.1908 7.18283L27.1909 7.1829ZM30.1364 7.1829H29.58V7.07013H30.1364C30.3619 7.07013 30.5819 7.05661 30.7211 6.91738V9.81271H31.2775V9.92548H29.5801V9.81271H30.1365V7.18283L30.1364 7.1829ZM30.4285 5.31177C30.6231 5.31177 30.783 5.47189 30.783 5.66635C30.783 5.86095 30.6231 6.02092 30.4285 6.02092C30.2342 6.02092 30.0742 5.86131 30.0739 5.66692C30.0745 5.47232 30.2344 5.31235 30.429 5.31177H30.4285ZM33.5899 8.06512L33.9282 7.61418C34.0117 7.50141 34.1024 7.36384 34.1024 7.30803C34.1024 7.21724 34.0048 7.1829 33.7963 7.1829H33.6503V7.07013H34.9373V7.1829H34.7288C34.4576 7.1829 34.3392 7.27312 34.1515 7.50986L33.644 8.15649L34.6589 9.81213H35.1177V9.9249H33.4164V9.81213H33.9587L33.263 8.67856L32.7557 9.34651C32.6429 9.49254 32.5865 9.62447 32.5865 9.70117C32.5865 9.7637 32.6214 9.81386 32.7557 9.81386H33.0685V9.92664H31.7122V9.81386H31.8857C32.2337 9.81386 32.3588 9.68201 32.644 9.31268L33.2077 8.57982L32.3594 7.18174H31.8582V7.06897H33.4716V7.18174H33.0544L33.5899 8.06512Z" fill="#03A9F4"/>
</g>
<defs>
<clipPath id="clip0">
<rect width="34.1928" height="12" fill="white" transform="translate(0.99762 0.5)"/>
</clipPath>
</defs>
</svg>
