<svg width="19" height="19" viewBox="0 0 19 19" fill="none" xmlns="http://www.w3.org/2000/svg">
<g clip-path="url(#clip0)">
<path fill-rule="evenodd" clip-rule="evenodd" d="M9.19646 0.640141C10.5527 0.638757 11.8912 0.948692 13.1089 1.54608C13.2943 1.63421 13.4797 1.7315 13.6652 1.8376L12.8439 2.57402L11.6084 1.29667L9.52392 3.15604L8.2856 1.80441L4.40296 5.3051L6.89265 8.04831L5.91438 8.90869L8.36607 11.6564L7.39375 12.5148L10.8973 16.4146L12.9769 14.4997L14.775 16.5514C14.4028 16.8407 14.0097 17.1021 13.599 17.3334C12.258 18.0987 10.7404 18.5005 9.19646 18.4991C4.2782 18.4991 0.267029 14.4881 0.267029 9.56946C0.267029 4.6512 4.2782 0.640141 9.19646 0.640141Z" fill="#2167B2"/>
<path fill-rule="evenodd" clip-rule="evenodd" d="M7.56887 9.00552L9.6924 7.09339L11.6042 9.21658L9.481 11.1287L7.56887 9.00552ZM6.04944 5.3795L8.17263 3.46737L10.0844 5.5909L7.96123 7.50269L6.04944 5.3795ZM9.94593 4.35052L11.5386 2.91637L12.9724 4.50939L11.3801 5.9432L9.94593 4.35052ZM12.7758 10.918L14.3685 9.48384L15.8024 11.0769L14.2101 12.5107L12.7759 10.918H12.7758ZM14.8182 6.76215L15.88 5.80608L16.8361 6.86779L15.7742 7.82386L14.8182 6.76215ZM13.4615 3.60758L14.5232 2.65186L15.4793 3.71357L14.4176 4.66929L13.4615 3.60758ZM16.1753 9.91638L17.237 8.96066L18.1932 10.0224L17.1314 10.9784L16.1753 9.91627V9.91638ZM11.4143 7.55271L13.0065 6.11855L14.4403 7.71135L12.848 9.14516L11.4143 7.55282V7.55271ZM9.07937 12.6747L11.2026 10.7629L13.1143 12.8861L10.9912 14.7982L9.07937 12.6747ZM14.1764 14.1345L15.7691 12.7007L17.2029 14.2929L15.6102 15.7271L14.1764 14.1344V14.1345Z" fill="#2167B2"/>
</g>
<defs>
<clipPath id="clip0">
<rect width="18.0843" height="19" fill="white" transform="translate(0.190369)"/>
</clipPath>
</defs>
</svg>
