<svg width="32" height="13" viewBox="0 0 32 13" fill="none" xmlns="http://www.w3.org/2000/svg">
<g clip-path="url(#clip0)">
<path d="M0.453308 4.70371V6.39528L5.01671 5.89337V4.06236L0.453308 4.70364V4.70371ZM1.90957 6.49822V12.2949H3.58025V6.32747L1.90957 6.49822ZM5.63304 3.97583V12.2949H7.3935V3.72838L5.63304 3.9759V3.97583ZM7.72148 3.68226V5.59597L10.2636 5.31629V3.32501L7.72148 3.68219V3.68226ZM7.72148 7.02029V8.96884L9.3902 8.8779V6.87658L7.72148 7.02022V7.02029ZM7.72148 10.3733V12.2948H10.2636V10.2967L7.72148 10.3733ZM16.8378 2.39812V12.2949H19.1456V2.07376L16.8378 2.39812ZM19.5765 2.01311V4.28956L22.9398 3.91981V1.54034L19.5765 2.01311ZM19.5765 6.00166V8.32034L21.781 8.1999V5.81291L19.5765 6.00159V6.00166ZM19.5765 10.0151V12.2949H22.9398V9.91352L19.5765 10.0151ZM10.9362 3.23031V12.2949H12.9415V2.94838L10.9362 3.23031H10.9362ZM13.3159 10.2046V12.2948H16.2267V10.1168L13.3159 10.2046ZM30.48 1.42843C29.7507 0.739227 28.6811 0.456577 27.5114 0.624721V3.14956C27.9851 3.12325 28.3689 3.29906 28.54 3.65299C28.81 4.21106 28.5314 5.04824 27.8742 5.82397C26.8598 7.02101 24.1623 9.47111 24.1623 9.47111L28.0347 9.34381C30.4007 7.03229 31.2504 5.62916 31.4028 3.87802C31.4829 2.95156 31.1466 2.05887 30.48 1.42843ZM31.5392 12.2949V9.65291L23.685 9.88959L31.5392 12.2949ZM23.685 9.88944L23.6859 12.2948H31.5392L23.685 9.88944ZM27.0599 0.681396C24.7782 1.16732 23.6578 2.84595 23.787 5.58499L26.2198 5.36913C26.109 3.82171 26.5824 3.45462 27.0611 3.25279L27.0599 0.681396Z" fill="#141414"/>
</g>
<defs>
<clipPath id="clip0">
<rect width="31.5904" height="12" fill="white" transform="translate(0.274719 0.5)"/>
</clipPath>
</defs>
</svg>
