<svg width="20" height="19" viewBox="0 0 20 19" fill="none" xmlns="http://www.w3.org/2000/svg">
<g clip-path="url(#clip0)">
<path fill-rule="evenodd" clip-rule="evenodd" d="M15.9579 13.3513C15.8001 12.6195 15.4614 12.0691 14.9875 11.6532C14.8239 11.4806 14.6259 11.3584 14.4013 11.2288C14.2884 11.1634 14.2057 11.1232 14.058 11.0674C13.812 10.9737 13.4891 10.865 13.0876 10.9056C13.2888 10.8038 13.5883 10.7997 13.8963 10.8043C14.1519 10.8317 14.3638 10.9026 14.583 10.9658C14.7665 11.0657 14.9482 11.1669 15.129 11.2692C15.5719 9.94465 15.4023 8.13221 14.907 6.96406C14.4276 5.73867 13.7313 4.73007 12.8254 3.93207C11.9344 3.11827 10.8643 2.48349 9.44991 2.19391C8.74982 2.0426 7.86898 2.06686 7.22623 2.21417C6.55465 2.39112 5.99632 2.68173 5.50837 3.04273C5.05491 3.44482 4.6148 3.86053 4.31582 4.41714C4.20806 4.52507 4.16167 4.6947 4.07306 4.82152C4.01105 4.97489 3.94145 5.12083 3.87138 5.26619C3.76683 5.5861 3.64715 5.89067 3.58803 6.25659C3.42645 6.91816 3.39729 7.82741 3.50749 8.54071C3.59044 9.30655 3.815 9.9308 4.05357 10.5415C4.20033 10.8257 4.33436 11.1228 4.49737 11.3904C4.65234 11.6604 4.8442 11.8928 5.02349 12.1385C5.43073 12.58 5.86809 12.9913 6.37728 13.3311C7.40987 14.0037 8.59485 14.5226 10.2177 14.6042C10.2496 14.5382 10.1738 14.4064 10.1571 14.3214C10.1328 14.2241 10.1233 14.1125 10.096 14.0184C10.0732 13.8007 10.0661 13.5469 10.096 13.3311C10.1605 13.3478 10.1585 13.4304 10.1975 13.4726C10.232 13.5122 10.2449 13.5733 10.2987 13.5937C10.3393 13.7077 10.4276 13.7745 10.4804 13.8767C10.633 14.0341 10.7518 14.2251 10.9455 14.3414C11.0995 14.4978 11.3053 14.6013 11.4911 14.7257C11.6913 14.8288 11.8629 14.9603 12.0976 15.0288C12.499 15.24 13.0374 15.3147 13.573 15.3927C14.1128 15.4658 14.6336 15.5578 15.129 15.6757C15.5853 15.8322 16.0504 15.98 16.4228 16.2208C16.6192 16.3346 16.813 16.4507 16.9884 16.5853C17.0743 16.6539 17.1827 16.7008 17.2511 16.7871C17.3575 16.8294 17.4043 16.9306 17.5139 16.9688C17.8277 17.2681 18.1376 17.5714 18.4039 17.9188C18.5134 18.1191 18.6633 18.2788 18.7472 18.5053C18.821 18.5863 18.8425 18.7193 18.9088 18.8082C18.9131 18.9231 19.0243 19.0608 18.9287 19.152C18.7788 19.1741 18.8092 19.0156 18.7472 18.9499C18.6985 18.8706 18.638 18.8024 18.6051 18.7075C18.3686 18.4592 18.1568 18.1858 17.8979 17.9597C17.6418 17.7376 17.39 17.5104 17.0894 17.3333C16.525 16.9338 15.8706 16.6253 15.1087 16.4232C14.3585 16.2062 13.5173 16.119 12.542 16.1809C12.1138 16.2371 11.7052 16.3146 11.3493 16.4431C10.9664 16.5386 10.54 16.5905 10.1165 16.6454C8.46226 16.7475 6.62005 16.3526 5.38674 15.7566C4.7287 15.4518 4.12316 15.0935 3.60848 14.6449C3.32723 14.4414 3.09734 14.1855 2.8607 13.9373C2.64437 13.6752 2.41674 13.4242 2.25421 13.1085C2.03818 12.8395 1.91028 12.482 1.72856 12.1788C1.61049 11.8189 1.44311 11.5078 1.36483 11.1077C1.24127 10.7464 1.1654 10.337 1.12255 9.89475C1.11546 9.77331 1.06101 9.5389 1.0615 9.34901C1.0615 9.33207 1.08341 9.31697 1.08195 9.28835C1.07294 9.11598 1.03202 8.85055 1.08195 8.70233C1.07294 8.30184 1.14495 7.80921 1.22371 7.42887C1.29604 7.02323 1.40397 6.6525 1.52704 6.29688C1.64722 5.93245 1.80638 5.60659 1.95087 5.26619C2.04817 5.12071 2.12211 4.95212 2.21361 4.80149C2.29093 4.64274 2.40675 4.52301 2.47683 4.35659C2.55464 4.31298 2.56848 4.20585 2.63808 4.15457C2.66949 4.0645 2.75342 4.02695 2.77969 3.93207C2.84589 3.87701 2.89856 3.80822 2.94141 3.72994C3.00295 3.66996 3.06738 3.61319 3.10298 3.5278C3.34381 3.2903 3.55935 3.02728 3.81032 2.80019C4.06066 2.56533 4.34047 2.36033 4.59902 2.13336C4.76301 2.05507 4.88142 1.93077 5.04346 1.85031C5.16654 1.73768 5.34584 1.6808 5.46794 1.56725C5.8051 1.41915 6.09217 1.22113 6.45831 1.1021C6.77404 0.939568 7.15229 0.839417 7.50942 0.718435C8.2854 0.519279 9.06828 0.382387 10.0355 0.415122C10.0703 0.419242 10.088 0.380556 10.096 0.415122C11.9276 0.470291 13.2626 1.02209 14.4013 1.76939C15.5297 2.5208 16.4033 3.52677 17.0288 4.78112C17.6408 6.02344 17.9851 7.71192 17.6961 9.49071C17.5513 10.2893 17.3174 10.9985 17.0288 11.6532C16.8636 11.9599 16.7162 12.2839 16.5235 12.5629C16.4391 12.7136 16.3486 12.8593 16.2406 12.9873C16.2044 13.0652 16.153 13.1284 16.0995 13.1895C16.0757 13.2265 16.0462 13.2576 16.0185 13.2907C16.0093 13.3086 16.0009 13.3269 15.9779 13.3311C15.9837 13.3672 15.9594 13.3726 15.9579 13.3513Z" fill="#F78F1F"/>
<path fill-rule="evenodd" clip-rule="evenodd" d="M15.473 13.8767C15.2359 13.7834 15.1959 13.4933 15.0886 13.2703C15.0695 13.1885 15.0529 13.0654 15.0886 12.9873C15.1049 12.9835 15.1086 12.967 15.1291 12.967C15.1887 12.9287 15.2455 12.9773 15.3309 13.0074C15.4472 13.1406 15.5211 13.3161 15.5737 13.5127C15.5779 13.672 15.5899 13.8389 15.473 13.8767ZM13.6942 13.5332C13.6979 13.51 13.7147 13.5218 13.7147 13.5332C14.0729 13.5788 14.2374 13.8185 14.2603 14.2001C14.2282 14.4111 14.11 14.5354 13.9164 14.5842C13.4339 14.5923 13.1592 14.1481 13.3303 13.6947C13.4266 13.6161 13.4949 13.5093 13.6942 13.5331" fill="#F78F1F"/>
</g>
<defs>
<clipPath id="clip0">
<rect width="18.3133" height="19" fill="white" transform="translate(0.865051)"/>
</clipPath>
</defs>
</svg>
