<svg width="37" height="13" viewBox="0 0 37 13" fill="none" xmlns="http://www.w3.org/2000/svg">
<g clip-path="url(#clip0)">
<path d="M15.7844 12.1179H12.8472L14.6831 0.83476H17.6206L15.7844 12.1179ZM10.3757 0.834688L7.57515 8.59519L7.24376 6.92405L7.24405 6.92463L6.25561 1.85087C6.25561 1.85087 6.13609 0.834688 4.86218 0.834688H0.232671L0.178345 1.02577C0.178345 1.02577 1.59444 1.32 3.25102 2.31569L5.80318 12.1179H8.86354L13.5375 0.83476H10.3757V0.834688ZM30.2487 8.12646L31.7924 3.9041L32.6608 8.12646H30.2487ZM33.4811 12.1179H36.1783L33.8267 0.83476H31.465C30.3742 0.83476 30.109 1.67558 30.109 1.67558L25.7278 12.1179H28.7897L29.4024 10.442H33.1367L33.4811 12.1179ZM25.9575 3.54802L26.3768 1.12472C26.3768 1.12472 25.0832 0.632812 23.7347 0.632812C22.277 0.632812 18.8152 1.27024 18.8152 4.36798C18.8152 7.28318 22.8782 7.3194 22.8782 8.85023C22.8782 10.3807 19.2341 10.1073 18.0314 9.14142L17.5944 11.6745C17.5944 11.6745 18.906 12.312 20.9104 12.312C22.9146 12.312 25.9395 11.2737 25.9395 8.44909C25.9395 5.51577 21.8399 5.24241 21.8399 3.96719C21.8399 2.69148 24.7005 2.85532 25.9575 3.54802Z" fill="#0066B3"/>
<path d="M7.24405 6.92466L6.25561 1.8509C6.25561 1.8509 6.13609 0.834717 4.86218 0.834717H0.232671L0.178345 1.0258C0.178345 1.0258 2.40354 1.48692 4.53833 3.21477C6.57852 4.86599 7.24405 6.92466 7.24405 6.92466Z" fill="#FAA633"/>
</g>
<defs>
<clipPath id="clip0">
<rect width="36" height="11.7344" fill="white" transform="translate(0.178345 0.632812)"/>
</clipPath>
</defs>
</svg>
