<svg width="32" height="19" viewBox="0 0 32 19" fill="none" xmlns="http://www.w3.org/2000/svg">
<g clip-path="url(#clip0)">
<path fill-rule="evenodd" clip-rule="evenodd" d="M15.9357 16.5382C17.839 14.8005 19.0348 12.2899 19.0348 9.4982C19.0348 6.70652 17.839 4.19623 15.9357 2.45834C14.2624 0.93076 12.0424 0 9.60667 0C4.39971 0 0.178345 4.25239 0.178345 9.4982C0.178345 14.7439 4.39959 18.9963 9.60655 18.9963C12.0423 18.9963 14.2623 18.0655 15.9355 16.5382H15.9357Z" fill="#009DDD"/>
<path fill-rule="evenodd" clip-rule="evenodd" d="M22.2647 0C19.8287 0 17.6087 0.93076 15.9357 2.45834C15.5944 2.76998 15.2762 3.10606 14.9837 3.46389H16.8869C17.1482 3.78324 17.3884 4.11921 17.6061 4.46969H14.2649C14.0638 4.79375 13.8822 5.12963 13.7214 5.47549H18.149C18.3015 5.80276 18.435 6.13854 18.5488 6.48116H13.3222C13.2125 6.81111 13.1211 7.14685 13.0483 7.48684H18.8228C18.964 8.14797 19.035 8.82215 19.0348 9.4982C19.0358 10.5235 18.8718 11.5422 18.549 12.5153H13.322C13.4358 12.8579 13.5691 13.1936 13.7213 13.5209H18.1489C17.9882 13.8667 17.8069 14.2026 17.6059 14.5267H14.2648C14.4823 14.8771 14.7223 15.2131 14.9833 15.5324H16.8869C16.5946 15.8902 16.2766 16.2264 15.9356 16.5382C17.6086 18.0656 19.8286 18.9963 22.2645 18.9963C27.4714 18.9963 31.6926 14.7439 31.6926 9.4982C31.6928 4.25239 27.4715 0 22.2647 0Z" fill="#ED1B2D"/>
<path fill-rule="evenodd" clip-rule="evenodd" d="M8.42868 11.8635H7.25549L7.95271 8.16151L6.34697 11.8635H5.27708L5.08167 8.1828L4.38192 11.8635H3.31683L4.22691 7.04797H6.058L6.15505 10.0293L7.44585 7.04797H9.35366L8.42856 11.8635H8.42868ZM21.5425 11.8153C21.2212 11.904 20.9702 11.9425 20.6992 11.9425C20.0988 11.9425 19.7711 11.6391 19.7711 11.0823C19.7711 10.9722 19.7832 10.8551 19.8058 10.731L19.877 10.3478L19.932 10.0378L20.4759 7.04761H21.6428L21.4737 7.94698H22.0726L21.9115 8.89902H21.3102L21.0011 10.5329C20.9873 10.6047 20.9808 10.6584 20.9808 10.6952C20.9808 10.8973 21.1023 10.9854 21.3814 10.9854C21.515 10.9854 21.6186 10.973 21.6978 10.9489L21.5425 11.8153ZM24.9695 7.97945C24.8714 7.94037 24.848 7.94037 24.8369 7.93712C24.7747 7.92329 24.7413 7.91511 24.7358 7.91427C24.6968 7.90745 24.6573 7.90419 24.6176 7.90453C24.2325 7.90453 23.9548 8.07733 23.5955 8.54031L23.6991 7.94698H22.6366L21.9211 11.8635H23.0954C23.5155 9.46806 23.6955 9.04874 24.2588 9.04874C24.3009 9.04874 24.3503 9.05211 24.407 9.05848L24.5444 9.08686L24.9695 7.97933V7.97945ZM16.891 9.1845C16.891 9.67923 17.1676 10.0203 17.7948 10.276C18.2756 10.4727 18.3499 10.5304 18.3499 10.7081C18.3499 10.952 18.138 11.0619 17.6687 11.0619C17.3141 11.0619 16.9848 11.0138 16.6044 10.907L16.4417 11.8105L16.4944 11.8195L16.712 11.8592C16.7818 11.8716 16.8852 11.883 17.0221 11.8937C17.3043 11.9156 17.5229 11.9262 17.6767 11.9262C18.9293 11.9262 19.5082 11.5127 19.5082 10.6194C19.5082 10.082 19.2663 9.76677 18.6712 9.52927C18.1735 9.33121 18.1162 9.2872 18.1162 9.10454C18.1162 8.89337 18.3135 8.7849 18.697 8.7849C18.9303 8.7849 19.2482 8.80703 19.5503 8.84359L19.7192 7.93712C19.4118 7.89491 18.9457 7.8604 18.6746 7.8604C17.3467 7.8604 16.8868 8.46202 16.891 9.1845ZM12.2435 11.8635H11.2683L11.2909 11.4575C10.9939 11.7787 10.5983 11.9311 10.0602 11.9311C9.42425 11.9311 8.98797 11.495 8.98797 10.8616C8.98797 9.90771 9.74617 9.35142 11.0491 9.35142C11.1828 9.35142 11.3524 9.36224 11.5272 9.38172C11.5637 9.25305 11.5737 9.19749 11.5737 9.12738C11.5737 8.86812 11.3687 8.7712 10.8209 8.7712C10.486 8.7712 10.1073 8.81352 9.84586 8.88026L9.68316 8.92187L9.57782 8.94737L9.74052 8.06663C10.3255 7.91596 10.7117 7.85883 11.1454 7.85883C12.1538 7.85883 12.6868 8.25675 12.6868 9.00749C12.6868 9.20062 12.6692 9.34757 12.5915 9.78349L12.3462 11.1729L12.305 11.4223L12.275 11.6213L12.255 11.7573L12.2435 11.8635ZM11.3873 10.1186C11.2644 10.1058 11.2101 10.1024 11.1251 10.1024C10.46 10.1024 10.1233 10.303 10.1233 10.6984C10.1233 10.9422 10.2877 11.0979 10.5442 11.0979C11.0224 11.0979 11.3671 10.6976 11.3873 10.1185V10.1186ZM16.093 11.7787C15.691 11.8862 15.3017 11.9384 14.8905 11.9376C13.5788 11.937 12.8951 11.3351 12.8951 10.1832C12.8951 8.83878 13.7649 7.84909 14.9458 7.84909C15.9118 7.84909 16.5284 8.40346 16.5284 9.27265C16.5284 9.56126 16.4865 9.84241 16.3845 10.2394H14.0515C14.0426 10.2999 14.0402 10.3265 14.0402 10.3625C14.0402 10.8166 14.3881 11.0479 15.0695 11.0479C15.4886 11.0479 15.8675 10.9716 16.2881 10.8005L16.093 11.7787ZM15.4681 9.44858C15.4745 9.36693 15.4777 9.30019 15.4777 9.24896C15.4777 8.93077 15.272 8.74414 14.9227 8.74414C14.5494 8.74414 14.2824 8.99451 14.1741 9.44606L15.4681 9.44858ZM28.6173 10.0877C28.4417 11.3905 27.5386 11.9685 26.338 11.9685C25.0104 11.9685 24.4741 11.157 24.4741 10.1631C24.4741 8.77516 25.3822 7.83478 26.7847 7.83478C28.002 7.83478 28.6484 8.60801 28.6484 9.60214C28.6484 9.84385 28.648 9.86009 28.6173 10.0877ZM27.4087 9.58675C27.4087 9.17705 27.2437 8.79032 26.7627 8.79032C26.1642 8.79032 25.7928 9.50342 25.7928 10.1327C25.7928 10.6639 26.0472 11.0204 26.4667 11.0128C26.7211 11.0128 27.2634 10.6639 27.3707 10.0542C27.397 9.89977 27.4098 9.74337 27.4088 9.58675H27.4087Z" fill="white"/>
</g>
<defs>
<clipPath id="clip0">
<rect width="31.6266" height="19" fill="white" transform="translate(0.178345)"/>
</clipPath>
</defs>
</svg>
